<svg width="120" height="40" viewBox="0 0 120 40" fill="none" xmlns="http://www.w3.org/2000/svg">
<path d="M110.135 0.00013H9.53468C9.16798 0.00013 8.80568 0.00013 8.43995 0.00213C8.1338 0.00413 7.83009 0.00994 7.521 0.01483C6.84951 0.0227318 6.17961 0.0818063 5.5171 0.19154C4.85552 0.303663 4.21467 0.515046 3.61622 0.81854C3.0185 1.1246 2.47235 1.5223 1.99757 1.9972C1.5203 2.47077 1.12246 3.01815 0.81935 3.61829C0.5154 4.21724 0.304641 4.85907 0.19435 5.52161C0.0830109 6.18332 0.0230984 6.85265 0.01515 7.52361C0.00587 7.83021 0.00489 8.13783 0 8.44447V31.5587C0.00489 31.8692 0.00587 32.17 0.01515 32.4806C0.0231008 33.1516 0.0830134 33.8209 0.19435 34.4825C0.304336 35.1455 0.515108 35.7877 0.81935 36.3868C1.12233 36.985 1.52022 37.5302 1.99757 38.0011C2.47054 38.4781 3.01705 38.8761 3.61622 39.1798C4.21467 39.4841 4.85545 39.6968 5.5171 39.8106C6.17972 39.9195 6.84956 39.9786 7.521 39.9874C7.83009 39.9942 8.1338 39.9981 8.43995 39.9981C8.80567 40.0001 9.168 40.0001 9.53468 40.0001H110.135C110.494 40.0001 110.859 40.0001 111.219 39.9981C111.523 39.9981 111.836 39.9942 112.141 39.9874C112.811 39.9791 113.479 39.92 114.141 39.8106C114.804 39.696 115.448 39.4834 116.049 39.1798C116.647 38.8759 117.193 38.478 117.666 38.0011C118.142 37.5284 118.541 36.9836 118.848 36.3868C119.15 35.7872 119.358 35.1451 119.467 34.4825C119.578 33.8208 119.64 33.1516 119.652 32.4806C119.656 32.17 119.656 31.8692 119.656 31.5587C119.664 31.1954 119.664 30.8341 119.664 30.4649V9.53626C119.664 9.17005 119.664 8.80677 119.656 8.44447C119.656 8.13783 119.656 7.83021 119.652 7.52357C119.64 6.85255 119.578 6.18337 119.467 5.52157C119.358 4.85941 119.149 4.21763 118.848 3.61825C118.23 2.41533 117.252 1.43616 116.049 0.81845C115.448 0.515697 114.804 0.30437 114.141 0.19145C113.48 0.0812328 112.811 0.0221378 112.141 0.01469C111.836 0.00981 111.523 0.00395 111.219 0.002C110.859 0 110.494 0.00013 110.135 0.00013Z" fill="#A6A6A6"/>
<path d="M8.44487 39.125C8.14019 39.125 7.84287 39.1211 7.54058 39.1143C6.91436 39.1061 6.2896 39.0516 5.67144 38.9512C5.09503 38.8519 4.53664 38.6673 4.0147 38.4033C3.49754 38.1415 3.02585 37.7983 2.6177 37.3867C2.20364 36.98 1.85891 36.5082 1.59719 35.9902C1.33258 35.4688 1.14945 34.9099 1.05419 34.333C0.951311 33.7131 0.895651 33.0863 0.887687 32.458C0.881347 32.2471 0.873047 31.5449 0.873047 31.5449V8.44434C0.873047 8.44434 0.881887 7.75293 0.887737 7.5498C0.895363 6.92248 0.950699 6.29665 1.05327 5.67773C1.14871 5.09925 1.33197 4.53875 1.59673 4.01563C1.85749 3.49794 2.2003 3.02586 2.61187 2.61768C3.02297 2.20562 3.49617 1.8606 4.01421 1.59521C4.53495 1.33209 5.09228 1.14873 5.66753 1.05127C6.28772 0.949836 6.91465 0.894996 7.54304 0.88721L8.44536 0.875H111.214L112.127 0.8877C112.75 0.895099 113.371 0.94945 113.985 1.05029C114.566 1.14898 115.13 1.33362 115.656 1.59814C116.694 2.13299 117.539 2.97916 118.071 4.01807C118.332 4.53758 118.512 5.09351 118.607 5.66699C118.71 6.29099 118.768 6.92174 118.78 7.5542C118.783 7.8374 118.783 8.1416 118.783 8.44434C118.791 8.81934 118.791 9.17627 118.791 9.53613V30.4648C118.791 30.8281 118.791 31.1826 118.783 31.54C118.783 31.8652 118.783 32.1631 118.779 32.4697C118.768 33.0909 118.711 33.7104 118.608 34.3232C118.515 34.9043 118.333 35.4675 118.068 35.9932C117.805 36.5056 117.462 36.9733 117.053 37.3789C116.644 37.7927 116.172 38.1379 115.653 38.4014C115.128 38.6674 114.566 38.8527 113.985 38.9512C113.367 39.0522 112.742 39.1067 112.116 39.1143C111.823 39.1211 111.517 39.125 111.219 39.125L110.135 39.127L8.44487 39.125Z" fill="#0C271C"/>
<path d="M24.769 20.3007C24.7797 19.466 25.0014 18.6477 25.4135 17.9217C25.8255 17.1957 26.4145 16.5858 27.1256 16.1486C26.6738 15.5035 26.0779 14.9725 25.385 14.598C24.6922 14.2234 23.9216 14.0156 23.1344 13.991C21.4552 13.8147 19.8272 14.9958 18.9715 14.9958C18.0992 14.9958 16.7817 14.0085 15.363 14.0376C14.4453 14.0673 13.551 14.3341 12.7671 14.8122C11.9832 15.2903 11.3365 15.9632 10.8901 16.7655C8.95607 20.1139 10.3987 25.035 12.2513 27.7416C13.1782 29.0669 14.2615 30.5474 15.6789 30.4949C17.066 30.4374 17.584 29.6104 19.2583 29.6104C20.9171 29.6104 21.4031 30.4949 22.8493 30.4615C24.3377 30.4374 25.2754 29.1303 26.1698 27.7924C26.8358 26.848 27.3483 25.8043 27.6882 24.6999C26.8235 24.3341 26.0856 23.722 25.5665 22.9397C25.0474 22.1574 24.77 21.2396 24.769 20.3007Z" fill="white"/>
<path d="M22.0376 12.2109C22.8491 11.2367 23.2489 9.98451 23.1521 8.72028C21.9123 8.8505 20.767 9.44306 19.9445 10.3799C19.5424 10.8376 19.2344 11.37 19.0381 11.9468C18.8419 12.5235 18.7612 13.1333 18.8008 13.7413C19.4209 13.7477 20.0344 13.6132 20.5951 13.3482C21.1558 13.0831 21.649 12.6942 22.0376 12.2109Z" fill="white"/>
<path d="M42.3022 27.1396H37.5688L36.4321 30.4961H34.4272L38.9106 18.0781H40.9936L45.477 30.4961H43.438L42.3022 27.1396ZM38.0591 25.5908H41.8111L39.9615 20.1435H39.9097L38.0591 25.5908Z" fill="white"/>
<path d="M55.1597 25.9697C55.1597 28.7832 53.6538 30.5908 51.3814 30.5908C50.8057 30.6209 50.2332 30.4883 49.7294 30.2082C49.2256 29.928 48.8109 29.5117 48.5327 29.0068H48.4897V33.4912H46.6313V21.4424H48.4302V22.9482H48.4644C48.7553 22.4458 49.1771 22.0316 49.6847 21.7497C50.1923 21.4679 50.7669 21.3289 51.3472 21.3476C53.645 21.3477 55.1597 23.1641 55.1597 25.9697ZM53.2495 25.9697C53.2495 24.1367 52.3023 22.9316 50.857 22.9316C49.437 22.9316 48.482 24.1621 48.482 25.9697C48.482 27.7939 49.437 29.0156 50.857 29.0156C52.3023 29.0156 53.2495 27.8193 53.2495 25.9697Z" fill="white"/>
<path d="M65.1245 25.9697C65.1245 28.7832 63.6187 30.5908 61.3462 30.5908C60.7706 30.6209 60.1981 30.4883 59.6943 30.2082C59.1905 29.928 58.7758 29.5117 58.4976 29.0068H58.4546V33.4912H56.5962V21.4424H58.395V22.9482H58.4292C58.7201 22.4458 59.1419 22.0316 59.6495 21.7497C60.1571 21.4679 60.7317 21.3289 61.312 21.3476C63.6099 21.3476 65.1245 23.164 65.1245 25.9697ZM63.2144 25.9697C63.2144 24.1367 62.2671 22.9316 60.8218 22.9316C59.4019 22.9316 58.4468 24.1621 58.4468 25.9697C58.4468 27.7939 59.4019 29.0156 60.8218 29.0156C62.2671 29.0156 63.2144 27.8193 63.2144 25.9697Z" fill="white"/>
<path d="M71.7105 27.0361C71.8482 28.2676 73.0445 29.0761 74.6792 29.0761C76.2456 29.0761 77.3726 28.2675 77.3726 27.1572C77.3726 26.1933 76.6929 25.6162 75.0835 25.2207L73.4742 24.833C71.1939 24.2822 70.1353 23.2158 70.1353 21.4853C70.1353 19.3427 72.0025 17.871 74.6538 17.871C77.2778 17.871 79.0767 19.3427 79.1372 21.4853H77.2612C77.1489 20.246 76.1245 19.498 74.6274 19.498C73.1304 19.498 72.106 20.2548 72.106 21.3564C72.106 22.2343 72.7603 22.7509 74.3608 23.1464L75.729 23.4823C78.2769 24.0849 79.3355 25.1083 79.3355 26.9247C79.3355 29.248 77.4849 30.703 74.5415 30.703C71.7876 30.703 69.9282 29.2821 69.8081 27.036L71.7105 27.0361Z" fill="white"/>
<path d="M83.3462 19.2998V21.4424H85.0679V22.9141H83.3462V27.9053C83.3462 28.6807 83.6909 29.042 84.4477 29.042C84.6521 29.0384 84.8562 29.0241 85.0591 28.999V30.4619C84.7188 30.5255 84.3729 30.5543 84.0268 30.5478C82.1938 30.5478 81.479 29.8593 81.479 28.1035V22.9141H80.1626V21.4424H81.479V19.2998H83.3462Z" fill="white"/>
<path d="M86.0649 25.9697C86.0649 23.1211 87.7427 21.3311 90.3589 21.3311C92.9839 21.3311 94.6538 23.1211 94.6538 25.9697C94.6538 28.8262 92.9927 30.6084 90.3589 30.6084C87.726 30.6084 86.0649 28.8262 86.0649 25.9697ZM92.7602 25.9697C92.7602 24.0156 91.8647 22.8623 90.3589 22.8623C88.853 22.8623 87.9585 24.0244 87.9585 25.9697C87.9585 27.9316 88.853 29.0762 90.3589 29.0762C91.8647 29.0762 92.7602 27.9316 92.7602 25.9697Z" fill="white"/>
<path d="M96.186 21.4424H97.9585V22.9834H98.0015C98.1214 22.5021 98.4034 22.0768 98.8 21.7789C99.1966 21.481 99.6836 21.3287 100.179 21.3476C100.393 21.3469 100.607 21.3702 100.816 21.417V23.1553C100.546 23.0726 100.264 23.0347 99.981 23.043C99.711 23.032 99.4418 23.0796 99.192 23.1825C98.9421 23.2854 98.7175 23.4411 98.5335 23.639C98.3496 23.8369 98.2106 24.0723 98.1262 24.3289C98.0417 24.5856 98.0139 24.8575 98.0444 25.126V30.4961H96.186L96.186 21.4424Z" fill="white"/>
<path d="M109.384 27.8369C109.134 29.4805 107.534 30.6084 105.486 30.6084C102.852 30.6084 101.217 28.8437 101.217 26.0127C101.217 23.1729 102.861 21.3311 105.408 21.3311C107.913 21.3311 109.488 23.0518 109.488 25.7969V26.4336H103.093V26.5459C103.064 26.8791 103.105 27.2148 103.216 27.5306C103.326 27.8464 103.502 28.1352 103.732 28.3778C103.963 28.6203 104.242 28.8111 104.552 28.9374C104.861 29.0637 105.195 29.1226 105.529 29.1103C105.968 29.1515 106.409 29.0498 106.785 28.8203C107.162 28.5909 107.455 28.246 107.62 27.8369L109.384 27.8369ZM103.102 25.1348H107.628C107.645 24.8352 107.6 24.5354 107.495 24.2541C107.39 23.9729 107.229 23.7164 107.02 23.5006C106.812 23.2849 106.561 23.1145 106.283 23.0003C106.006 22.8861 105.708 22.8305 105.408 22.8369C105.105 22.8351 104.805 22.8933 104.525 23.008C104.245 23.1227 103.99 23.2918 103.776 23.5054C103.562 23.7191 103.392 23.973 103.276 24.2527C103.16 24.5323 103.101 24.8321 103.102 25.1348Z" fill="white"/>
<path d="M37.8262 8.73098C38.2158 8.70302 38.6067 8.76188 38.9709 8.90332C39.335 9.04475 39.6632 9.26523 39.9317 9.54886C40.2003 9.83248 40.4026 10.1722 40.524 10.5435C40.6454 10.9147 40.6829 11.3083 40.6338 11.6958C40.6338 13.6021 39.6035 14.6978 37.8262 14.6978H35.6709V8.73098H37.8262ZM36.5976 13.854H37.7226C38.0011 13.8706 38.2797 13.825 38.5382 13.7204C38.7967 13.6157 39.0287 13.4548 39.2172 13.2492C39.4057 13.0437 39.546 12.7987 39.6278 12.532C39.7097 12.2654 39.7311 11.9839 39.6904 11.708C39.7281 11.4332 39.7046 11.1534 39.6215 10.8887C39.5383 10.6241 39.3977 10.381 39.2096 10.1771C39.0216 9.97319 38.7907 9.81338 38.5337 9.70914C38.2766 9.60491 37.9996 9.55882 37.7226 9.57419H36.5976V13.854Z" fill="white"/>
<path d="M41.6805 12.4443C41.6521 12.1484 41.686 11.8498 41.7798 11.5678C41.8737 11.2857 42.0254 11.0264 42.2254 10.8064C42.4253 10.5864 42.669 10.4106 42.9409 10.2903C43.2127 10.1701 43.5067 10.1079 43.804 10.1079C44.1013 10.1079 44.3952 10.1701 44.6671 10.2903C44.939 10.4106 45.1827 10.5864 45.3826 10.8064C45.5825 11.0264 45.7343 11.2857 45.8281 11.5678C45.922 11.8498 45.9558 12.1484 45.9275 12.4443C45.9564 12.7405 45.9229 13.0395 45.8293 13.322C45.7357 13.6046 45.5841 13.8644 45.3841 14.0848C45.1841 14.3052 44.9402 14.4814 44.6681 14.6019C44.3959 14.7224 44.1016 14.7847 43.804 14.7847C43.5064 14.7847 43.212 14.7224 42.9399 14.6019C42.6678 14.4814 42.4239 14.3052 42.2239 14.0848C42.0239 13.8644 41.8722 13.6046 41.7786 13.322C41.6851 13.0395 41.6516 12.7405 41.6805 12.4443ZM45.0135 12.4443C45.0135 11.4682 44.575 10.8974 43.8055 10.8974C43.033 10.8974 42.5985 11.4682 42.5985 12.4443C42.5985 13.4282 43.033 13.9946 43.8055 13.9946C44.575 13.9946 45.0135 13.4243 45.0135 12.4443Z" fill="white"/>
<path d="M51.5732 14.6977H50.6514L49.7207 11.3813H49.6504L48.7236 14.6977H47.8105L46.5693 10.1948H47.4707L48.2773 13.6308H48.3438L49.2695 10.1948H50.1221L51.0479 13.6308H51.1182L51.9209 10.1948H52.8096L51.5732 14.6977Z" fill="white"/>
<path d="M53.8535 10.1948H54.709V10.9101H54.7754C54.888 10.6532 55.0781 10.4378 55.3189 10.294C55.5598 10.1502 55.8395 10.0852 56.1191 10.1079C56.3382 10.0914 56.5582 10.1244 56.7628 10.2045C56.9674 10.2846 57.1514 10.4097 57.3011 10.5706C57.4508 10.7314 57.5623 10.9239 57.6275 11.1337C57.6927 11.3435 57.7099 11.5653 57.6777 11.7827V14.6977H56.7891V12.0058C56.7891 11.2822 56.4746 10.9223 55.8174 10.9223C55.6686 10.9154 55.5201 10.9407 55.3821 10.9966C55.244 11.0524 55.1197 11.1374 55.0175 11.2458C54.9154 11.3542 54.8379 11.4834 54.7904 11.6245C54.7429 11.7656 54.7264 11.9154 54.7422 12.0635V14.6977H53.8535L53.8535 10.1948Z" fill="white"/>
<path d="M59.0938 8.43698H59.9824V14.6977H59.0938V8.43698Z" fill="white"/>
<path d="M61.2175 12.4443C61.1893 12.1484 61.2231 11.8498 61.317 11.5677C61.4109 11.2856 61.5626 11.0263 61.7626 10.8063C61.9626 10.5863 62.2063 10.4105 62.4782 10.2903C62.75 10.17 63.044 10.1078 63.3413 10.1078C63.6386 10.1078 63.9326 10.17 64.2045 10.2903C64.4764 10.4105 64.7201 10.5863 64.92 10.8063C65.12 11.0263 65.2718 11.2856 65.3656 11.5677C65.4595 11.8498 65.4934 12.1484 65.4651 12.4443C65.4939 12.7405 65.4604 13.0395 65.3668 13.3221C65.2732 13.6046 65.1215 13.8644 64.9215 14.0848C64.7215 14.3052 64.4776 14.4813 64.2054 14.6019C63.9333 14.7224 63.639 14.7847 63.3413 14.7847C63.0437 14.7847 62.7493 14.7224 62.4772 14.6019C62.2051 14.4813 61.9612 14.3052 61.7612 14.0848C61.5611 13.8644 61.4095 13.6046 61.3158 13.3221C61.2222 13.0395 61.1887 12.7405 61.2175 12.4443ZM64.5505 12.4443C64.5505 11.4682 64.1121 10.8974 63.3425 10.8974C62.5701 10.8974 62.1355 11.4682 62.1355 12.4443C62.1355 13.4282 62.5701 13.9946 63.3425 13.9946C64.1121 13.9946 64.5505 13.4243 64.5505 12.4443Z" fill="white"/>
<path d="M66.4009 13.4243C66.4009 12.6138 67.0044 12.1465 68.0757 12.0801L69.2954 12.0098V11.6211C69.2954 11.1455 68.981 10.877 68.3735 10.877C67.8774 10.877 67.5337 11.0591 67.4351 11.3774H66.5747C66.6655 10.604 67.3931 10.1079 68.4146 10.1079C69.5435 10.1079 70.1802 10.6699 70.1802 11.6211V14.6978H69.3247V14.0649H69.2544C69.1117 14.2919 68.9113 14.477 68.6737 14.6012C68.436 14.7254 68.1697 14.7843 67.9019 14.7719C67.7128 14.7916 67.5218 14.7714 67.341 14.7127C67.1602 14.654 66.9938 14.5581 66.8524 14.4311C66.711 14.3042 66.5977 14.149 66.52 13.9756C66.4422 13.8021 66.4016 13.6144 66.4009 13.4243ZM69.2954 13.0395V12.6631L68.1958 12.7334C67.5757 12.7749 67.2944 12.9858 67.2944 13.3828C67.2944 13.7881 67.646 14.0239 68.1294 14.0239C68.2711 14.0382 68.4142 14.0239 68.5502 13.9819C68.6862 13.9398 68.8123 13.8707 68.9211 13.7789C69.0299 13.6871 69.1191 13.5743 69.1834 13.4473C69.2477 13.3202 69.2858 13.1816 69.2954 13.0395Z" fill="white"/>
<path d="M71.3481 12.4443C71.3481 11.0215 72.0796 10.1201 73.2173 10.1201C73.4987 10.1071 73.778 10.1745 74.0225 10.3144C74.267 10.4543 74.4667 10.6609 74.5981 10.9101H74.6646V8.43698H75.5532V14.6977H74.7017V13.9863H74.6314C74.4897 14.2338 74.2831 14.4378 74.0339 14.5763C73.7846 14.7148 73.5022 14.7824 73.2173 14.7719C72.0718 14.772 71.3481 13.8706 71.3481 12.4443ZM72.2661 12.4443C72.2661 13.3994 72.7163 13.9741 73.4693 13.9741C74.2183 13.9741 74.6812 13.3911 74.6812 12.4482C74.6812 11.5098 74.2134 10.9184 73.4693 10.9184C72.7212 10.9184 72.2661 11.4971 72.2661 12.4443Z" fill="white"/>
<path d="M79.3374 8.86327C79.3306 8.74817 79.3585 8.63366 79.4174 8.53458C79.4764 8.4355 79.5638 8.35641 79.6682 8.30756C79.7727 8.2587 79.8894 8.24234 80.0032 8.26058C80.1171 8.27882 80.2228 8.33082 80.3068 8.40986C80.3907 8.48889 80.449 8.59132 80.4741 8.70386C80.4992 8.81641 80.4899 8.93389 80.4474 9.04109C80.4049 9.14829 80.3313 9.24026 80.2359 9.3051C80.1406 9.36995 80.028 9.40467 79.9126 9.40477C79.8389 9.40853 79.7653 9.39734 79.696 9.37189C79.6267 9.34644 79.5633 9.30724 79.5096 9.25666C79.4559 9.20608 79.4129 9.14515 79.3833 9.07755C79.3537 9.00994 79.3381 8.93706 79.3374 8.86327ZM79.4693 10.1948H80.355V14.6977H79.4693V10.1948Z" fill="white"/>
<path d="M81.7886 10.1948H82.644V10.9101H82.7105C82.8231 10.6532 83.0131 10.4378 83.254 10.294C83.4949 10.1502 83.7746 10.0852 84.0542 10.1079C84.2733 10.0914 84.4933 10.1244 84.6979 10.2045C84.9025 10.2846 85.0865 10.4097 85.2361 10.5706C85.3858 10.7314 85.4974 10.9239 85.5626 11.1337C85.6278 11.3435 85.645 11.5653 85.6128 11.7827V14.6977H84.7241V12.0058C84.7241 11.2822 84.4097 10.9223 83.7524 10.9223C83.6037 10.9154 83.4552 10.9407 83.3171 10.9966C83.1791 11.0524 83.0547 11.1374 82.9526 11.2458C82.8505 11.3542 82.773 11.4834 82.7255 11.6245C82.6779 11.7656 82.6615 11.9154 82.6772 12.0635V14.6977H81.7886V10.1948Z" fill="white"/>
<path d="M89.2075 12.4443C89.2075 11.0215 89.939 10.1201 91.0767 10.1201C91.3581 10.1071 91.6374 10.1745 91.8819 10.3144C92.1264 10.4543 92.3261 10.6609 92.4575 10.9101H92.5239V8.43698H93.4126V14.6977H92.561V13.9863H92.4907C92.3491 14.2338 92.1425 14.4378 91.8932 14.5763C91.644 14.7148 91.3616 14.7824 91.0767 14.7719C89.9311 14.772 89.2075 13.8706 89.2075 12.4443ZM90.1255 12.4443C90.1255 13.3994 90.5757 13.9741 91.3286 13.9741C92.0776 13.9741 92.5406 13.3911 92.5406 12.4482C92.5406 11.5098 92.0728 10.9184 91.3286 10.9184C90.5806 10.9184 90.1255 11.4971 90.1255 12.4443Z" fill="white"/>
<path d="M98.6784 13.4819C98.5576 13.8935 98.296 14.2494 97.9393 14.4876C97.5827 14.7257 97.1536 14.8309 96.7272 14.7846C96.4305 14.7925 96.1357 14.7357 95.8632 14.6181C95.5907 14.5006 95.3471 14.3252 95.1492 14.104C94.9512 13.8829 94.8038 13.6213 94.7171 13.3375C94.6304 13.0537 94.6066 12.7544 94.6471 12.4604C94.6076 12.1655 94.6319 11.8656 94.7184 11.5809C94.8049 11.2963 94.9516 11.0335 95.1484 10.8104C95.3453 10.5874 95.5878 10.4092 95.8595 10.288C96.1312 10.1668 96.4258 10.1054 96.7233 10.1079C97.9762 10.1079 98.7321 10.9639 98.7321 12.3779V12.688H95.5524V12.7378C95.5385 12.903 95.5593 13.0694 95.6134 13.2261C95.6675 13.3829 95.7538 13.5266 95.8667 13.648C95.9796 13.7695 96.1166 13.866 96.269 13.9314C96.4214 13.9968 96.5858 14.0296 96.7516 14.0278C96.9642 14.0533 97.1796 14.015 97.3703 13.9178C97.5611 13.8206 97.7186 13.6689 97.8229 13.4819L98.6784 13.4819ZM95.5524 12.0307H97.8268C97.838 11.8796 97.8174 11.7278 97.7665 11.5851C97.7155 11.4424 97.6353 11.3119 97.5309 11.202C97.4265 11.0922 97.3003 11.0054 97.1604 10.9472C97.0204 10.889 96.8699 10.8608 96.7184 10.8642C96.5647 10.8623 96.4122 10.8912 96.2698 10.9491C96.1274 11.0071 95.9981 11.0929 95.8894 11.2016C95.7808 11.3103 95.695 11.4397 95.6371 11.5821C95.5792 11.7245 95.5504 11.877 95.5524 12.0307Z" fill="white"/>
</svg>
