<svg width="24" height="21" viewBox="0 0 24 21" fill="none" xmlns="http://www.w3.org/2000/svg">
<g clip-path="url(#clip0_224_33043)">
<path d="M6.48486 3.4293V18.7241H13.0309C18.9773 18.7241 21.5556 15.3064 21.5556 10.4843C21.5556 5.86557 18.9775 2.27588 13.0309 2.27588H7.61854C7.46964 2.27588 7.3222 2.30571 7.18464 2.36368C7.04708 2.42165 6.92209 2.50662 6.81682 2.61373C6.71154 2.72083 6.62804 2.84799 6.57109 2.98793C6.51413 3.12787 6.48483 3.27785 6.48486 3.4293Z" fill="#CC0066"/>
<path d="M1.70065 0.57645C1.39999 0.576728 1.11173 0.698338 0.899134 0.914587C0.686539 1.13084 0.566983 1.42405 0.56671 1.72987V19.2701C0.566983 19.5759 0.686539 19.8692 0.899134 20.0854C1.11173 20.3017 1.39999 20.4233 1.70065 20.4235H12.2792C19.3494 20.4235 23.2436 16.8908 23.2436 10.4764C23.2436 1.86244 16.3739 0.57645 12.2792 0.57645H1.70065ZM12.2792 21H1.70065C1.24975 20.9995 0.817465 20.8171 0.498636 20.4928C0.179806 20.1685 0.000478183 19.7288 0 19.2701L0 1.72987C0.000478183 1.27123 0.179806 0.831515 0.498636 0.507206C0.817465 0.182897 1.24975 0.000486402 1.70065 0L12.2792 0C22.3123 0 23.8103 6.56355 23.8103 10.4764C23.8103 17.2628 19.7154 21 12.2792 21Z" fill="white"/>
<path d="M8.73418 11.3977C8.84799 11.3977 8.9587 11.3788 9.06631 11.3416C9.17367 11.304 9.26915 11.2418 9.35276 11.1547C9.43689 11.068 9.50399 10.9544 9.55405 10.8145C9.60438 10.6748 9.62967 10.5039 9.62967 10.3026C9.62967 10.1183 9.61186 9.95216 9.57702 9.80385C9.54656 9.66556 9.48734 9.5355 9.40334 9.42243C9.31964 9.31444 9.20957 9.23063 9.08412 9.17936C8.95122 9.12292 8.78786 9.09483 8.59354 9.09483H8.02993V11.398H8.73444L8.73418 11.3977ZM8.78967 8.41942C9.02089 8.41942 9.23664 8.45722 9.43586 8.5323C9.63099 8.60436 9.80798 8.71957 9.95405 8.86961C10.1001 9.01976 10.2139 9.20745 10.2965 9.43267C10.3783 9.6579 10.4196 9.92223 10.4196 10.2259C10.4196 10.4921 10.3861 10.7378 10.319 10.963C10.2519 11.1877 10.1504 11.3825 10.0147 11.5461C9.87599 11.7122 9.70221 11.8444 9.50631 11.9327C9.30347 12.0267 9.06451 12.0734 8.78967 12.0734H7.23999V8.41942H8.78967ZM13.6299 8.41968V9.09483H11.7334V9.87787H13.4738V10.5024H11.7334V11.398H13.6702V12.0734H10.9435V8.41942L13.6299 8.41968ZM16.3799 10.6609L15.927 9.32006H15.9169L15.4493 10.6609H16.3799ZM16.3347 8.41942L17.6777 12.0734H16.8578L16.5861 11.2597H15.2426L14.961 12.0734H14.1662L15.5246 8.41942H16.3347ZM18.9644 8.41968V11.3977H20.7151V12.0732H18.1744V8.41916H18.9641L18.9644 8.41968Z" fill="white"/>
<path d="M5.18394 10.2464C5.18394 10.4678 5.14108 10.6869 5.0578 10.8914C4.97453 11.0959 4.85247 11.2817 4.6986 11.4383C4.54473 11.5948 4.36206 11.7189 4.16102 11.8036C3.95998 11.8883 3.74451 11.9319 3.52691 11.9319C3.3093 11.9319 3.09383 11.8883 2.89279 11.8036C2.69175 11.7189 2.50908 11.5948 2.35521 11.4383C2.20134 11.2817 2.07928 11.0959 1.99601 10.8914C1.91273 10.6869 1.86987 10.4678 1.86987 10.2464C1.86987 9.7994 2.04445 9.37068 2.35521 9.05459C2.66596 8.73849 3.08743 8.56091 3.52691 8.56091C3.96638 8.56091 4.38785 8.73849 4.6986 9.05459C5.00936 9.37068 5.18394 9.7994 5.18394 10.2464ZM4.78187 18.7241C3.39529 18.7241 2.27091 17.5807 2.27091 16.17V14.1782C2.27091 13.8395 2.40318 13.5146 2.63863 13.2751C2.87408 13.0356 3.19341 12.9011 3.52639 12.9011C3.85936 12.9011 4.1787 13.0356 4.41415 13.2751C4.6496 13.5146 4.78187 13.8395 4.78187 14.1782V18.7241Z" fill="white"/>
</g>
<defs>
<clipPath id="clip0_224_33043">
<rect width="24" height="21" fill="white"/>
</clipPath>
</defs>
</svg>
