<svg width="135" height="40" viewBox="0 0 135 40" fill="none" xmlns="http://www.w3.org/2000/svg">
<g clip-path="url(#clip0_222_31649)">
<path d="M130 40H5C2.25 40 0 37.75 0 35V5C0 2.25 2.25 0 5 0H130C132.75 0 135 2.25 135 5V35C135 37.75 132.75 40 130 40Z" fill="#0C271C"/>
<path fill-rule="evenodd" clip-rule="evenodd" d="M135 5V35C135 37.75 132.75 40 130 40H5C2.25 40 0 37.75 0 35V5C0 2.25 2.25 0 5 0H130C132.75 0 135 2.25 135 5ZM5 0.8C2.7 0.8 0.8 2.7 0.8 5V35C0.8 37.3 2.7 39.2 5 39.2H130C132.3 39.2 134.2 37.3 134.2 35V5C134.2 2.7 132.3 0.8 130 0.8H5Z" fill="#A6A6A6"/>
<path fill-rule="evenodd" clip-rule="evenodd" d="M72.3998 26C72.3998 28.45 70.4998 30.25 68.1498 30.25C65.7998 30.25 63.8498 28.45 63.8498 26C63.8498 23.55 65.7998 21.75 68.1498 21.75C70.4998 21.75 72.3998 23.55 72.3998 26ZM70.5498 26C70.5498 24.45 69.3998 23.45 68.1498 23.45C66.8498 23.45 65.7498 24.45 65.7498 26C65.7498 27.5 66.8498 28.6 68.1498 28.6C69.3998 28.6 70.5498 27.5 70.5498 26ZM63.0998 26C63.0998 28.45 61.1498 30.25 58.7998 30.25C56.4498 30.25 54.5498 28.45 54.5498 26C54.5498 23.55 56.4498 21.75 58.7998 21.75C61.1498 21.75 63.0998 23.55 63.0998 26ZM61.1998 26C61.1998 24.45 60.0998 23.45 58.7998 23.45C57.5498 23.45 56.3998 24.45 56.3998 26C56.3998 27.5 57.5498 28.6 58.7998 28.6C60.0998 28.6 61.1998 27.5 61.1998 26ZM53.7998 23.05C53.8998 23.4 53.8998 23.75 53.8998 24.2C53.8998 25.55 53.5498 27.2 52.3498 28.4C51.1998 29.6 49.6998 30.25 47.7498 30.25C44.0998 30.25 41.0498 27.3 41.0498 23.65C41.0498 20 44.0998 17.05 47.7498 17.05C49.7498 17.05 51.1998 17.85 52.2498 18.85L50.9998 20.15C50.1998 19.4 49.1998 18.85 47.7498 18.85C45.0998 18.85 42.9998 21 42.9998 23.65C42.9998 26.3 45.0998 28.45 47.7498 28.45C49.4498 28.45 50.4498 27.75 51.0998 27.15C51.5998 26.6 51.9498 25.9 52.0498 24.85H47.7498V23.05H53.7998ZM93.1998 24.95L87.5498 27.3C87.9498 28.15 88.6498 28.6 89.5998 28.6C90.5498 28.6 91.1998 28.1 91.6998 27.4L93.1498 28.35C92.6498 29.05 91.5498 30.25 89.5998 30.25C87.1998 30.25 85.3998 28.4 85.3998 26C85.3998 23.5 87.1998 21.75 89.3998 21.75C91.5998 21.75 92.6498 23.5 93.0498 24.45L93.1998 24.95ZM90.9998 24.3C90.7998 23.8 90.1498 23.4 89.3998 23.4C88.4498 23.4 87.1498 24.25 87.1998 25.9L90.9998 24.3ZM82.5498 17.5H84.4498V30H82.5498V17.5ZM79.4998 22H81.2498V29.65C81.2498 32.8 79.3998 34.05 77.2498 34.05C75.1498 34.05 73.8998 32.7 73.4498 31.55L75.0998 30.9C75.3498 31.6 76.0998 32.4 77.2498 32.4C78.6498 32.4 79.4998 31.55 79.4998 29.9V29.3H79.4498C78.9998 29.8 78.1998 30.25 77.1998 30.25C75.0498 30.25 73.0998 28.4 73.0998 26C73.0998 23.6 75.0498 21.75 77.1998 21.75C78.1998 21.75 78.9998 22.2 79.4498 22.7H79.4998V22ZM79.6498 26C79.6498 24.5 78.6498 23.4 77.3498 23.4C76.0498 23.4 74.9998 24.5 74.9998 26C74.9998 27.5 76.0498 28.55 77.3498 28.55C78.6498 28.55 79.6498 27.5 79.6498 26ZM105.85 21.35C105.85 23.75 103.8 25.25 101.75 25.25H99.1498V30H97.2498V17.5H101.75C103.8 17.5 105.85 19 105.85 21.35ZM103.95 21.35C103.95 20.4 103.2 19.25 101.8 19.25H99.1498V23.5H101.8C103.2 23.5 103.95 22.35 103.95 21.35ZM117.1 25.2V29.95H115.3V29H115.25C114.8 29.65 114.1 30.25 112.85 30.25C111.25 30.25 109.75 29.15 109.75 27.5C109.75 25.65 111.6 24.65 113.35 24.65C114.25 24.65 114.95 24.95 115.3 25.15V25C115.3 24 114.3 23.4 113.35 23.4C112.65 23.4 112 23.65 111.65 24.3L110 23.65C110.55 22.3 111.95 21.7 113.3 21.7C115.45 21.7 117.1 22.95 117.1 25.2ZM115.3 26.6C114.8 26.35 114.45 26.15 113.6 26.15C112.7 26.15 111.65 26.55 111.65 27.5C111.65 28.25 112.5 28.55 113.1 28.55C114.15 28.55 115.15 27.75 115.3 26.6ZM125.75 22L120.6 33.8H118.65L120.55 29.55L117.25 22H119.25L121.45 27.4H121.55L123.65 22H125.75ZM106.9 17.5H108.75V30H106.9V17.5Z" fill="white"/>
<path d="M20.7003 19.4L10.0503 30.7C10.0503 30.7333 10.0503 30.75 10.0503 30.75C10.4003 31.95 11.5003 32.85 12.8503 32.85C13.4003 32.85 13.9003 32.7 14.3003 32.45H14.3503L26.3503 25.55L20.7003 19.4Z" fill="#EA4335"/>
<path d="M31.5 17.5L26.3 14.5L20.5 19.7L26.3 25.55L31.45 22.55C32.35 22.05 33 21.1 33 20C33 18.95 32.4 18 31.5 17.5Z" fill="#FBBC04"/>
<path d="M10.0502 9.29999C9.98353 9.53332 9.9502 9.76665 9.9502 9.99999V30C9.9502 30.2333 9.98353 30.4667 10.0502 30.7L21.1002 19.7L10.0502 9.29999Z" fill="#4285F4"/>
<path d="M20.8003 20L26.3003 14.5L14.3503 7.54999C13.9003 7.29999 13.4003 7.14999 12.8503 7.14999C11.5003 7.14999 10.4003 8.04999 10.0503 9.24999C10.0503 9.28333 10.0503 9.29999 10.0503 9.29999L20.8003 20Z" fill="#34A853"/>
<path fill-rule="evenodd" clip-rule="evenodd" d="M46.2002 12.2C45.6335 12.8333 44.9002 13.15 44.0002 13.15C43.1335 13.15 42.4002 12.8333 41.8002 12.2C41.2335 11.6 40.9502 10.8667 40.9502 10C40.9502 9.13334 41.2335 8.40001 41.8002 7.80001C42.4002 7.16667 43.1335 6.85001 44.0002 6.85001C44.9002 6.85001 45.6335 7.16667 46.2002 7.80001C46.8002 8.40001 47.1002 9.13334 47.1002 10C47.1002 10.8667 46.8002 11.6 46.2002 12.2ZM42.4002 11.7C42.8335 12.1667 43.3669 12.4 44.0002 12.4C44.6669 12.4 45.2169 12.1667 45.6502 11.7C46.0835 11.2667 46.3002 10.7 46.3002 10C46.3002 9.30001 46.0835 8.73334 45.6502 8.30001C45.2169 7.83334 44.6669 7.60001 44.0002 7.60001C43.3669 7.60001 42.8335 7.83334 42.4002 8.30001C41.9335 8.73334 41.7002 9.30001 41.7002 10C41.7002 10.7 41.9335 11.2667 42.4002 11.7Z" fill="white" stroke="white" stroke-width="0.2" stroke-miterlimit="10"/>
<path d="M48.2002 13V7H49.1002L52.0502 11.65V10.5V7H52.8002V13H52.0002L48.9502 8.1H48.9002L48.9502 9.25V13H48.2002Z" fill="white" stroke="white" stroke-width="0.2" stroke-miterlimit="10"/>
<path d="M56.2503 13H55.4503V7.75H53.8003V7H57.9003V7.75H56.2503V13Z" fill="white" stroke="white" stroke-width="0.2" stroke-miterlimit="10"/>
<path fill-rule="evenodd" clip-rule="evenodd" d="M58.9004 13V7H60.7004C61.6337 7 62.3671 7.28333 62.9004 7.85C63.4671 8.38333 63.7504 9.1 63.7504 10C63.7504 10.9 63.4671 11.6167 62.9004 12.15C62.3671 12.7167 61.6337 13 60.7004 13H58.9004ZM59.7004 12.25H60.7504C61.4504 12.25 62.0004 12.05 62.4004 11.65C62.8004 11.25 63.0004 10.7 63.0004 10C63.0004 9.3 62.8004 8.75 62.4004 8.35C62.0004 7.95 61.4504 7.75 60.7504 7.75H59.7004V12.25Z" fill="white" stroke="white" stroke-width="0.2" stroke-miterlimit="10"/>
<path d="M68.3501 7.75H65.6001V9.65H68.0501V10.35H65.6001V12.25H68.3501V13H64.8501V7H68.3501V7.75Z" fill="white" stroke="white" stroke-width="0.2" stroke-miterlimit="10"/>
<path d="M74.0003 7V7.05L71.7503 9.6L74.1503 12.95V13H73.2003L71.2503 10.2L70.3003 11.25V13H69.5503V7H70.3003V10.1H70.3503L73.0003 7H74.0003Z" fill="white" stroke="white" stroke-width="0.2" stroke-miterlimit="10"/>
<path d="M76.9502 13V7H77.7002V9.55H80.7002V7H81.5002V13H80.7002V10.3H77.7002V13H76.9502Z" fill="white" stroke="white" stroke-width="0.2" stroke-miterlimit="10"/>
<path d="M86.3501 7.75H83.6001V9.65H86.1001V10.35H83.6001V12.25H86.3501V13H82.8501V7H86.3501V7.75Z" fill="white" stroke="white" stroke-width="0.2" stroke-miterlimit="10"/>
<path d="M89.6004 13H88.8504V7.75H87.1504V7H91.3004V7.75H89.6004V13Z" fill="white" stroke="white" stroke-width="0.2" stroke-miterlimit="10"/>
<path fill-rule="evenodd" clip-rule="evenodd" d="M99.1003 12.2C98.5003 12.8333 97.767 13.15 96.9003 13.15C96.0003 13.15 95.267 12.8333 94.7003 12.2C94.1003 11.6 93.8003 10.8667 93.8003 10C93.8003 9.13334 94.1003 8.40001 94.7003 7.80001C95.267 7.16667 96.0003 6.85001 96.9003 6.85001C97.767 6.85001 98.5003 7.16667 99.1003 7.80001C99.667 8.40001 99.9503 9.13334 99.9503 10C99.9503 10.8667 99.667 11.6 99.1003 12.2ZM95.2503 11.7C95.6836 12.1667 96.2336 12.4 96.9003 12.4C97.5336 12.4 98.067 12.1667 98.5003 11.7C98.967 11.2667 99.2003 10.7 99.2003 10C99.2003 9.30001 98.967 8.73334 98.5003 8.30001C98.067 7.83334 97.5336 7.60001 96.9003 7.60001C96.2336 7.60001 95.6836 7.83334 95.2503 8.30001C94.817 8.73334 94.6003 9.30001 94.6003 10C94.6003 10.7 94.817 11.2667 95.2503 11.7Z" fill="white" stroke="white" stroke-width="0.2" stroke-miterlimit="10"/>
<path fill-rule="evenodd" clip-rule="evenodd" d="M101.8 13H101.05V7H103.1C103.6 7 104.034 7.16667 104.4 7.5C104.767 7.83333 104.95 8.26667 104.95 8.8C104.95 9.3 104.767 9.71667 104.4 10.05C104.034 10.3833 103.6 10.55 103.1 10.55H101.8V13ZM101.8 9.85H103.1C103.434 9.85 103.7 9.75 103.9 9.55C104.1 9.31667 104.2 9.06667 104.2 8.8C104.2 8.53333 104.1 8.3 103.9 8.1C103.7 7.86667 103.434 7.75 103.1 7.75H101.8V9.85Z" fill="white" stroke="white" stroke-width="0.2" stroke-miterlimit="10"/>
</g>
<defs>
<clipPath id="clip0_222_31649">
<rect width="135" height="40" fill="white"/>
</clipPath>
</defs>
</svg>
