<svg width="151" height="19" viewBox="0 0 151 19" fill="none" xmlns="http://www.w3.org/2000/svg">
<path d="M98.0912 0C98.3496 0.0771115 98.5065 0.493514 98.6005 0.578336C98.765 0.732463 99.1017 0.732717 99.1565 1.05652C99.6106 1.1953 99.7676 1.17153 100.222 1.34117C100.269 1.35657 100.308 1.36434 100.355 1.37204H100.386C100.504 1.37974 100.613 1.37992 100.723 1.36451C101.49 1.23344 102.469 0.524369 103.213 0.8788C103.228 0.90189 103.213 0.955816 103.19 1.01736C103.198 1.02507 103.221 1.03317 103.221 1.03317L103.135 1.15667V1.19508C103.19 1.25677 104.058 1.4108 104.223 1.45714C104.333 1.48027 104.411 1.57316 104.505 1.63485C104.568 1.65796 104.622 1.68119 104.677 1.6966C104.889 1.72745 105.406 1.77302 105.602 1.7576C105.639 1.73533 105.677 1.69936 105.68 1.6966L105.648 1.19508V1.01736C106.079 1.07134 106.604 0.840515 107.074 0.771115C107.168 0.75578 107.348 0.793706 107.473 0.793706L107.599 0.771115L107.621 0.693552C107.629 0.554807 107.622 0.293395 107.747 0.254528C107.982 0.185155 109.5 0.0998767 109.806 0.115215C110.135 0.130636 110.323 0.238848 110.48 0.362213C110.543 0.393051 110.606 0.431351 110.668 0.469898C110.715 0.500743 110.746 0.555233 110.778 0.609211C110.825 0.640041 110.872 0.670422 110.934 0.693552C110.973 0.708965 111.013 0.71672 111.067 0.724426C111.13 0.701303 111.201 0.678338 111.263 0.686021C111.388 0.701443 111.514 0.724456 111.639 0.755301C112 0.770728 112.376 0.802003 112.587 0.963894H112.61V0.978954C112.727 1.08691 112.712 1.33391 112.79 1.41873C112.955 1.39561 113.143 1.41895 113.315 1.44208C113.542 1.42665 113.785 1.40289 113.856 1.37204C114.137 1.24854 114.091 0.940903 114.451 0.925488C114.568 0.917822 114.631 0.947993 114.685 0.986485C114.701 0.994196 114.709 0.994768 114.717 0.994768V1.00983C114.756 1.04834 114.787 1.07948 114.826 1.09492C114.99 1.15656 115.1 1.1949 115.257 1.27189C115.578 1.42611 115.969 1.36451 115.711 1.75007C116.189 1.68838 116.996 1.51889 117.419 1.51889H117.52C117.685 1.52666 117.779 1.68072 118.021 1.68079C118.734 1.64223 119.525 1.08718 120.293 1.25683C120.394 1.27994 120.488 1.31849 120.574 1.35698H120.598C120.746 1.40325 120.856 1.48771 120.974 1.56482C121.107 1.63419 121.248 1.68077 121.412 1.68079C121.451 1.68079 121.498 1.66531 121.553 1.64991C121.545 1.65767 121.538 1.67326 121.538 1.67326C121.569 1.66555 121.616 1.65781 121.655 1.64238C121.679 1.7732 121.522 1.77349 121.428 1.84269C121.373 1.97376 121.397 2.10489 121.444 2.22825C121.553 2.44416 121.741 2.67556 121.741 2.86834L122.234 2.52871L122.18 2.83746L122.203 2.93762C122.508 2.91448 123.37 2.70619 123.715 2.45943C123.816 2.35153 123.84 2.22061 123.73 2.05882C123.683 2.00484 123.628 1.95824 123.597 1.91197C123.581 1.89659 123.565 1.88142 123.542 1.86604C123.558 1.85062 123.566 1.83477 123.582 1.81935C123.605 1.78088 123.66 1.73504 123.793 1.6966C124.114 1.59636 124.247 1.84242 124.028 1.37204C124.419 1.92725 125.031 1.93559 125.406 2.40597C125.414 2.35204 125.429 2.32082 125.461 2.29C125.469 2.26687 125.477 2.23575 125.484 2.20491C125.539 2.21262 125.594 2.22054 125.649 2.22825C125.845 2.22055 126.111 2.29 126.323 2.29C126.424 2.28227 126.518 2.25918 126.604 2.22072C126.753 2.12048 126.714 1.92794 126.879 1.88938C126.871 1.93541 126.87 1.98135 126.87 2.01213C126.877 2.00491 126.885 1.99129 126.886 1.98954L127.058 2.22825C127.144 2.28223 127.239 2.33627 127.239 2.48278H127.184L127.113 2.49784C126.69 2.52868 125.391 3.06105 125.39 3.38492C125.39 3.56999 125.97 3.93998 125.523 4.19444C125.359 4.28698 125.218 4.24839 125.077 4.16357C125.03 4.14815 124.999 4.12505 124.975 4.09429C124.842 4.00177 124.709 3.87842 124.552 3.80136C124.411 3.72441 124.208 3.76254 124.232 3.61611L124.654 3.68539C124.709 3.60064 124.756 3.50088 124.788 3.40074C124.756 3.30828 124.701 3.23106 124.6 3.17708C124.373 3.12312 124.106 3.13803 123.848 3.19967C123.676 3.25365 123.479 3.33134 123.315 3.40074C123.205 3.46237 123.111 3.53173 123.041 3.60105C122.877 3.76285 122.916 3.95544 122.799 4.06341C122.705 4.14824 122.579 4.17134 122.493 4.22532C122.438 4.27154 122.407 4.32561 122.391 4.38722V4.43391C122.391 4.49556 122.422 4.57284 122.493 4.65756H122.509C122.618 4.6345 122.704 4.62658 122.759 4.63422H122.845C122.861 4.67274 122.861 4.70355 122.861 4.73437C122.869 4.76521 122.861 4.80409 122.845 4.85034C122.806 5.00446 122.688 5.13513 122.532 5.22762C122.454 5.20455 122.375 5.18971 122.297 5.16662C122.046 5.15117 121.592 5.05054 121.177 4.95803C120.802 4.90407 120.434 4.86572 120.058 4.81947C119.972 4.82718 119.893 4.82717 119.807 4.81947C119.713 4.80405 119.619 4.78103 119.525 4.75019C119.353 4.71936 119.18 4.69611 119.008 4.65756C118.93 4.65761 118.859 4.6727 118.781 4.7035C118.773 4.66502 118.773 4.63415 118.773 4.60334C118.648 4.57253 118.241 4.55674 118.241 4.48738C118.335 4.31047 118.687 4.50318 118.765 4.50319C118.812 4.50319 119.086 4.32618 119.165 4.27201L118.719 3.89398C118.977 3.81717 119.11 4.07098 119.259 4.16357C119.274 4.17125 119.282 4.17924 119.298 4.18691C119.305 4.17149 119.314 4.16375 119.314 4.15604C119.322 4.17146 119.337 4.19484 119.345 4.21026C119.463 4.28735 119.635 4.38767 119.799 4.43391C119.924 4.44158 120.057 4.42596 120.182 4.41057C120.19 4.40343 120.204 4.39653 120.206 4.39551C120.222 4.38008 120.269 4.21743 120.324 4.04007C120.355 3.77809 120.425 3.47763 120.441 3.20796C120.394 2.92265 120.253 2.66017 120.01 2.51365C119.783 2.40574 119.595 2.40604 119.431 2.46772C119.031 2.67614 118.601 3.32298 118.186 3.46173C118.107 3.4926 117.285 3.61607 117.246 3.58523C117.192 3.53799 117.317 3.21478 117.317 3.03777C117.262 2.9993 117.207 2.97651 117.153 2.95343C116.69 2.9303 116.118 3.16928 115.711 3.47002C115.609 3.56245 115.507 3.64716 115.413 3.73961C115.288 3.9016 114.881 4.53377 114.717 4.83453C114.685 4.91164 114.654 4.96595 114.654 4.98137C114.646 5.03517 114.646 5.08134 114.662 5.12746V5.14328C114.677 5.21257 114.709 5.28182 114.709 5.35112C114.717 5.42052 114.693 5.48275 114.615 5.5213C114.584 5.53654 114.31 5.06648 114.216 4.9889C114.145 4.93492 113.918 4.85025 113.62 4.75772C113.464 4.7346 113.291 4.71887 113.127 4.67263C113.033 4.64178 112.963 4.58782 112.884 4.5416C112.509 4.44135 112.14 4.34915 111.929 4.30288C111.866 4.29516 111.811 4.27971 111.749 4.27201C111.584 4.27201 111.357 4.34909 111.263 4.30288C111.154 4.24121 111.17 4.0945 111.185 3.95573C111.193 3.90186 111.193 3.84019 111.193 3.78629C111.185 3.72464 111.154 3.69321 111.06 3.71626C110.637 3.83192 110.034 4.70329 109.9 5.12746C109.853 5.25855 109.862 5.39756 109.877 5.53636C109.854 5.55173 109.838 5.55218 109.815 5.55218H109.775C109.431 5.58274 109.188 5.25862 108.82 5.35112C108.757 5.36655 108.687 5.3978 108.687 5.3978L108.671 5.41287C108.703 5.47455 108.703 5.52133 108.703 5.55218C108.711 5.56746 108.718 5.58283 108.71 5.59811C108.687 5.63667 108.522 5.65974 108.467 5.72914C108.381 5.82945 108.334 6.05277 108.272 6.06048C108.123 6.08353 108.052 6.05324 108.005 6.00702C107.982 5.99931 107.95 5.99154 107.911 5.97614C107.927 5.93758 107.943 5.89855 107.951 5.8677C107.935 5.73674 107.958 5.59047 107.826 5.56724C107.559 5.52869 107.692 5.99161 107.379 5.90686C107.23 5.55986 107.395 5.45154 107.504 5.34359C107.536 5.26649 107.575 5.18139 107.614 5.09659C107.692 4.79597 107.723 4.48758 107.911 4.21779C107.927 4.14068 107.935 4.06335 107.935 4.00166C107.747 3.44671 106.347 2.23758 106.189 2.39769C106.142 2.65984 106.103 2.92998 106.071 3.19214C106.056 3.32323 106.04 3.46243 106.032 3.59352C105.954 4.69604 106.064 5.80624 106.298 6.89335C105.876 6.66971 105.774 6.07585 105.218 5.96786C104.623 5.85941 104.496 6.4022 104.044 6.43851H103.925C103.871 6.43848 103.824 6.42304 103.761 6.40763L103.933 5.93774L103.119 6.19979L103.417 4.64928C103.401 4.64166 103.393 4.63439 103.386 4.63422C102.884 4.53397 102.383 4.781 102.007 5.10487C101.678 5.39032 101.263 6.03003 101.185 6.50026C101.185 6.55424 101.193 6.60083 101.201 6.6471C101.413 6.65428 102.532 5.999 102.735 5.92192C102.876 5.8681 102.931 5.92196 102.9 6.06048C102.822 6.42286 102.18 6.54658 101.921 6.85494C101.827 6.96285 101.819 7.1863 101.733 7.2789V7.31731H101.67C101.6 7.34043 101.443 7.3099 101.263 7.27137L100.582 7.19456L100.621 7.10194C100.605 7.09423 100.589 7.09441 100.574 7.09441C100.464 7.07153 100.16 7.17863 100.151 7.07106C100.23 6.94782 100.448 6.90894 100.566 6.9935C100.707 6.96266 100.786 6.73939 100.778 6.59288C100.613 6.53119 100.48 6.48514 100.37 6.42345C100.167 6.38489 99.9629 6.29205 99.9862 6.07629C99.9862 6.07629 99.9946 6.06837 99.9946 6.05295C99.9868 6.03755 99.971 6.02993 99.9709 6.01455C99.9944 5.99146 100.025 5.97584 100.049 5.9528C100.26 5.62907 100.918 4.78907 101.059 4.59581C101.372 4.15628 101.662 3.75476 101.975 3.26895C102.007 3.2225 102.18 3.00726 102.344 2.79153L102.618 2.32841C102.633 2.2822 102.634 2.25119 102.61 2.23578C102.602 2.22835 102.579 2.22825 102.579 2.22825L102.132 2.40597C102.07 2.44448 102.015 2.49029 101.96 2.49031H101.913L101.866 2.35175C101.803 2.2361 101.702 2.11283 101.428 2.32088C101.334 2.39028 100.613 3.25401 100.535 3.37739C100.315 3.72495 99.5165 5.80638 99.3913 5.85264C99.3051 5.88345 99.1955 5.9063 99.1251 5.79842C99.0234 5.65194 98.9997 5.45925 98.9997 5.24343V5.21256C98.984 5.09689 99.0154 4.5106 99.0311 4.38722C99.0389 4.34103 99.0544 4.30223 99.0701 4.26372C99.0701 4.17902 99.0704 4.09432 99.0548 4.02501C97.9976 4.14839 97.9427 5.82177 96.8385 5.82177L97.2767 6.09964H97.1597L97.175 6.1147L97.0496 6.09964C96.6736 6.10735 96.0159 6.12237 95.9377 6.08383C95.7188 5.96765 95.7342 5.12054 95.7342 4.88122L94.8731 5.96786V4.53407C94.3484 4.68829 94.3955 5.5829 94.3485 6.00702L93.0722 4.76525C93.0487 4.82686 93.0408 4.91157 93.0408 5.00396C93.0956 5.35868 93.2911 5.97605 93.3146 6.07629C93.1111 6.18417 92.9545 6.20747 92.7823 6.19979C92.618 6.21521 92.4613 6.20716 92.3908 6.14557C92.203 6.11476 92.0619 6.03025 91.9288 6.00702L91.662 6.06048C91.5837 6.11442 91.5057 6.19181 91.4119 6.31501L91.3492 6.16892L91.4195 5.9528C91.4195 5.92966 91.4432 5.88352 91.4432 5.88352L91.7484 4.98137C91.7562 4.91197 91.7642 4.83465 91.7721 4.76525H91.8187C92.0693 4.74983 92.0775 5.72911 92.1636 5.89105C92.2184 6.00648 92.3586 5.93769 92.3747 5.9528C92.5861 5.67519 92.6806 5.33569 92.712 4.96556C92.7041 4.80368 92.6882 4.63397 92.6882 4.44897V4.04007C92.6491 3.63149 92.5861 3.22295 92.5705 2.86834L92.1009 3.76295C91.866 4.05593 91.6543 4.39495 91.4585 4.7419C91.4037 4.88841 91.3493 5.0199 91.2788 5.14328C91.2553 5.18183 91.2155 5.21241 91.1763 5.25096C91.0824 5.42059 90.9965 5.59057 90.9026 5.75249C90.8634 5.82962 90.8318 5.96015 90.7144 5.96786C90.6052 5.74442 90.7537 5.56687 90.7771 5.45127C90.785 5.38967 90.8164 5.32039 90.8399 5.24343L90.7932 4.85787C90.7385 4.89637 90.7067 4.95006 90.6754 5.00396C90.6598 5.05794 90.6364 5.10472 90.6051 5.14328C90.5659 5.19723 90.5264 5.25894 90.4559 5.30518C90.1417 5.52872 87.6471 5.89851 87.465 5.78336C87.6921 5.36696 87.1357 5.28196 86.7989 5.21256C86.6971 5.35129 86.5798 5.45916 86.3997 5.44374L86.5641 5.15834C86.5172 5.15065 86.478 5.15081 86.4311 5.15081C85.7733 5.32818 85.7812 6.55405 85.0844 5.9528C85.4523 5.98354 85.7498 5.72123 85.8124 5.38199V5.28184C85.1546 5.48231 84.0505 5.29738 84.2776 6.30748C83.9017 6.3306 83.4478 6.16848 83.6122 5.73667L82.3045 6.43851V6.29995L82.2732 5.8293C82.8603 5.79056 83.299 5.22023 83.9097 5.50549C83.8471 5.26645 83.8392 5.03516 83.847 4.79612C83.8313 4.62648 83.831 4.45653 83.8623 4.2946V4.25619C83.8544 4.07905 83.7686 4.02472 83.6512 4.04007C83.5807 4.0632 83.5022 4.09432 83.4317 4.12516C83.1185 4.2948 82.7035 4.64932 82.5156 4.7419L80.8002 6.44604C80.5029 6.52294 80.3464 6.29943 80.0959 6.19151C80.0176 6.1761 79.9392 6.16116 79.8688 6.13804C79.6889 6.12264 79.4623 6.14534 79.3992 6.1147C79.3288 6.06843 79.2889 5.82165 79.2654 5.69827C79.2576 5.67521 79.2501 5.65205 79.2501 5.62899C79.1953 5.58273 78.9525 5.89874 78.8272 5.55971C78.827 5.6524 78.6786 5.91447 78.7568 6.07629C78.7333 6.12241 78.592 5.9912 78.545 5.9912C78.1382 5.95264 78.2867 5.88362 78.1145 5.81424C77.9969 5.76795 77.5191 5.58266 77.3704 5.56724C77.3549 5.57484 77.3468 5.57477 77.339 5.57477C77.3233 5.58255 77.2923 5.60582 77.2457 5.64405C77.1752 5.74427 77.12 5.90636 77.0339 5.9912C76.9477 6.07602 76.4779 6.40031 76.1177 6.61623C75.9145 6.77012 75.7424 6.86234 75.6795 6.809L75.7262 6.19151C75.6557 6.21464 75.5848 6.23841 75.5143 6.26154C75.303 6.39239 75.1152 6.39983 74.9431 6.34588C74.8726 6.33818 74.7944 6.33042 74.7083 6.31501C74.4655 6.26103 74.4494 6.05283 74.2693 5.92945C73.502 5.42087 73.1027 6.17665 73.087 6.87828L73.0006 6.73144L72.9149 6.68551C72.8211 6.69321 72.7585 6.77008 72.7115 6.86247L72.6802 7.01684C72.6645 7.03225 72.6408 7.03266 72.6251 7.03266C72.5781 7.1097 72.523 7.18657 72.437 7.2405C72.3198 7.14022 72.4836 6.8477 72.4056 6.70885C72.3743 6.67802 72.3353 6.64713 72.2649 6.6471C72.1082 6.70111 71.3404 7.17899 71.0742 7.23297C70.8625 7.27908 70.2757 7.20224 69.9156 7.29472C69.7903 7.34868 69.6886 7.43334 69.6181 7.59518L69.6411 7.6494C69.7664 7.81904 70.1815 8.35123 69.7978 8.35123C69.6021 8.35052 69.3906 7.37951 68.9757 7.29472C68.3415 7.16366 68.67 8.09677 68.0749 8.15846C67.9731 7.03275 67.7855 7.65707 67.3705 7.58012C67.2374 7.54928 67.1982 7.24811 66.979 7.24803C66.8067 7.24803 66.4697 7.6416 66.1408 7.364C66.1173 7.39486 66.0859 7.44858 66.0467 7.47168C66.0467 7.96505 66.4461 8.41242 66.7671 8.75938C66.8376 8.83646 67.0723 8.88304 67.096 9.04479C66.8847 9.09853 66.7281 8.93701 66.5637 8.87535C66.0156 8.67491 65.577 8.65944 65.3577 8.03496L65.867 7.89564C65.8899 7.81935 65.7584 7.81891 65.7569 7.80377C65.7335 7.77302 65.6481 7.7343 65.6476 7.71115C65.1386 7.34876 64.6922 8.37403 64.3085 7.96568C64.3085 7.95847 64.295 7.94413 64.2932 7.94233C64.2775 7.93462 64.2691 7.92688 64.2534 7.91146C64.2456 7.90371 64.2381 7.88825 64.2381 7.88058C63.7761 7.30996 64.7473 7.44843 64.8178 6.96263C64.8254 6.916 64.7862 6.77748 64.7627 6.70057C64.7079 6.69286 64.6217 6.71641 64.5356 6.74726C64.3242 6.88605 63.9796 7.12479 63.6194 7.34065C63.3767 7.54882 63.0635 7.6801 62.7346 7.71868C62.6485 7.7341 62.5619 7.73374 62.4914 7.73374H62.4761C62.4683 7.72614 62.4527 7.71875 62.4524 7.71115C62.4211 7.67259 62.3818 7.59494 62.327 7.54096C62.2879 7.51803 62.233 7.51791 62.1549 7.54096C61.9279 7.60265 61.7322 8.0036 61.4973 7.89564C61.4662 7.87974 61.5361 7.58 61.3252 7.45662C61.2469 7.41808 61.1527 7.40282 61.004 7.41822C60.2054 7.51845 60.3618 8.45896 59.9861 8.67504C59.9079 8.72898 59.6024 8.66734 59.5785 8.64417C59.5629 8.62875 59.7427 8.20424 59.4921 8.2428C59.4531 8.25068 59.4216 8.29706 59.3904 8.36629C59.3591 8.45878 59.3203 8.55144 59.2734 8.62082C59.2186 8.7442 59.1475 8.8596 59.0692 8.92129C58.7089 9.18339 58.0357 9.12201 57.5581 9.33019C57.2997 9.46124 57.1042 9.66178 57.0571 10.0471C57.0416 10.0394 57.0336 10.0321 57.0258 10.032C57.018 10.0706 57.0097 10.117 57.0097 10.1555C56.8611 10.0784 56.8459 9.96236 56.8224 9.8159C56.7598 9.47714 56.8454 9.60026 56.947 9.60053C57.0253 9.50029 57.1513 9.39938 57.2766 9.30684C57.3 9.27619 57.3312 9.24563 57.3546 9.21497C57.4329 9.13786 57.6055 9.099 57.6055 9.099L57.5343 8.91376C57.3776 8.79817 57.0652 8.69004 57.0495 8.5282L57.6521 8.2812H57.6445C56.7596 8.04216 56.3836 8.6057 55.7884 9.12235C55.5222 8.91415 55.6004 8.32012 55.2715 8.26614C55.2246 8.27383 55.1777 8.27367 55.1307 8.27367C55.1073 8.27367 55.0838 8.2818 55.0604 8.28948C54.7393 8.40515 54.5666 8.58251 54.5901 8.86782C54.5979 8.92931 54.6135 8.99083 54.6291 9.05232C54.7074 9.21425 55.0365 9.5692 54.8486 9.68487V9.70069C54.8251 9.70832 54.794 9.70822 54.7705 9.70822C54.4886 9.76991 54.3634 9.43028 54.2146 9.17582C54.1755 9.1219 54.1358 9.06075 54.1045 9.02219C54.0731 8.99135 54.0417 8.96776 54.0104 8.94463C53.8929 9.11422 53.7443 9.22258 53.5798 9.28425C53.4077 9.36897 53.212 9.41525 53.0086 9.41528C52.664 9.42299 51.8257 9.19919 51.6534 9.23003C51.6375 9.23781 51.5592 9.26086 51.4577 9.29931C51.3794 9.38414 51.3167 9.49984 51.2305 9.52297C51.1601 9.5383 51.0663 9.50751 50.9568 9.49209C50.6513 9.61547 50.338 9.73912 50.2754 9.76997C49.8212 9.98588 49.4762 10.4097 48.9202 10.4251C48.8571 10.4229 48.6378 9.83113 48.2236 9.82343L47.5972 10.2015C47.5425 10.1319 47.6367 9.81575 47.6836 9.56137L47.6989 9.43787C47.7067 9.3301 47.691 9.24562 47.6362 9.2225L47.2607 9.44616C47.1354 9.56954 47.0022 9.68463 46.9395 9.63065C47.0021 9.48435 47.0334 9.38389 47.0413 9.30684L46.9785 9.16829C46.7671 9.176 46.133 9.83922 45.9293 10.0629L46.2505 10.1939C46.0704 10.2402 45.6003 10.3483 45.2479 10.3483C45.0915 10.3637 44.9664 10.3481 44.9114 10.279V10.2632C44.8644 10.2324 44.8328 10.1937 44.825 10.1397C44.6999 9.52314 45.2874 9.94727 45.5301 9.73909C45.5693 9.70769 45.6551 9.44632 45.6708 9.346C45.616 9.26123 45.3968 9.37657 45.2793 9.31513C45.248 9.29971 45.2242 9.26067 45.1929 9.20669C45.0911 9.14498 45.005 9.03712 44.9581 8.84448C44.3087 9.06021 44.4332 9.93796 44.3631 10.0087C44.3005 10.0627 43.9871 9.93945 43.8148 9.97027C43.5799 10.0011 43.2664 10.1941 43.0393 10.3483C43.0236 10.3639 42.9927 10.4101 42.9927 10.4101V10.3792C42.977 10.3869 42.9453 10.4101 42.9453 10.4101L42.9063 9.90099L42.6088 9.97781L42.5071 10.0245C42.4993 10.0168 42.4994 10.0011 42.4994 10.0011L42.4054 10.0245L42.6952 9.33772C42.7108 9.26847 42.7183 9.21448 42.7105 9.16829C41.9591 9.01423 42.1465 9.97721 41.9824 10.1397C41.959 10.1628 41.2932 10.2246 41.2697 10.2015C41.2463 10.1779 41.2538 9.94736 41.246 9.79331C41.2382 9.7471 41.2303 9.72379 41.2146 9.70069C40.9408 9.82436 40.792 10.479 40.612 10.5486C40.3144 10.6643 40.3297 10.3787 40.2044 10.3016L40.1654 10.3408L40.5019 11.011V11.0268C40.4786 11.0498 40.4633 11.0655 40.44 11.0885C40.0876 11.5204 39.9619 11.1266 39.6408 11.011C39.5621 10.9877 39.0769 10.842 38.889 10.8882C38.8265 10.9114 38.8033 10.9573 38.8424 11.0343L39.1789 11.3739C38.0512 11.667 38.0903 10.0321 36.994 10.4176C36.8061 10.4793 36.7589 10.5566 36.7745 10.6337C36.798 10.6799 36.8216 10.7262 36.8372 10.7647C36.8842 10.8264 36.9393 10.8957 36.955 10.965C36.9863 11.0807 36.9629 11.2197 36.9864 11.3122C37.0098 11.3892 37.033 11.4587 37.1034 11.505C37.2991 11.4818 37.5659 11.4508 37.6364 11.6744C37.4094 11.7515 37.2917 11.6666 37.1118 11.6127C36.9091 11.5436 36.807 11.4285 36.7906 11.4274C36.5008 11.3503 36.1244 11.4511 35.866 11.5976C36.007 11.0501 35.9054 11.1192 35.7566 11.1269L35.6312 11.2038L35.5609 11.0501C35.5139 11.0039 35.4744 10.9265 35.4431 10.8031V10.8107C35.2787 11.4043 34.7859 11.2272 34.3709 11.2271C34.2143 11.2425 34.0732 11.2736 33.987 11.3815C33.9557 11.4355 33.9396 11.5048 33.9082 11.5434C33.9005 11.5664 33.893 11.5895 33.893 11.6202C33.8773 11.6048 33.8612 11.597 33.8455 11.5893C33.7673 11.6045 33.6268 11.5205 33.5251 11.5434C33.3215 11.5896 32.9922 12.0138 32.7573 11.7979C32.6085 11.6591 33.1021 11.3739 33.1726 11.3431C33.6112 11.1426 34.9262 11.0651 34.4015 10.3942L34.2455 10.4485C33.275 11.0881 34.0802 10.0177 34.0811 9.79331C33.9949 9.77789 33.9162 9.7775 33.8379 9.7775C33.1958 9.87008 32.7811 10.3177 32.4835 10.8882C32.5545 10.9335 32.8512 10.688 33.0311 10.6646C33.0606 10.6428 33.0905 10.6413 33.0938 10.6412V10.6721C33.1643 10.6952 33.2039 10.7724 33.1726 10.9575C33.1647 11.0191 33.141 11.0734 33.1175 11.1119V11.1428H33.0938C33.0076 11.2505 32.8746 11.3046 32.7573 11.3739C32.6791 11.4664 32.6242 11.5668 32.5929 11.5976C32.585 11.6283 32.5695 11.6517 32.5539 11.6593C32.4677 11.7132 32.1776 11.5973 31.9819 11.6435C31.7706 11.6899 31.6454 11.929 31.4733 11.9523C31.4185 11.96 30.535 11.729 30.4631 11.6978C30.1577 11.5512 29.6561 10.7955 29.2724 10.7339C28.834 10.6646 28.4424 10.8878 28.2545 11.1345C28.1762 11.2733 28.1526 11.4357 28.1918 11.5976C28.2466 11.6515 28.3254 11.69 28.435 11.6978H28.5443C28.6852 11.6515 28.8338 11.6438 28.9825 11.6669C29.1313 11.6592 29.2805 11.6669 29.4215 11.7286L29.3741 12.4455C29.1942 12.4452 29.1161 12.1835 29.0613 12.0524C28.9203 11.9753 28.7711 11.9674 28.6223 11.9982C28.2074 12.1602 27.683 12.6303 27.3307 12.6767H26.9934C26.7586 12.669 26.4923 12.6612 26.4688 12.6458C26.4307 12.6133 26.5945 12.2136 26.5086 11.9982C26.4851 11.9365 26.1482 11.4973 26.0306 11.5509H26.0229L25.7407 11.8672C25.6389 12.0291 25.5369 12.2069 25.4586 12.2994C25.4429 12.2379 25.4199 12.1836 25.4043 12.1451L25.2712 12.0057C25.2085 12.0057 25.1532 12.083 25.0984 12.191C25.0906 12.1987 25.0831 12.2142 25.0831 12.2219C24.9891 12.43 24.9027 12.746 24.8322 12.9388C24.8322 12.9773 24.8242 13.0083 24.8085 13.0314C24.8007 13.0468 24.7936 13.0551 24.7779 13.0705C24.6683 13.2632 24.4877 13.3708 24.3076 13.4787C24.3006 13.4925 24.2923 13.4945 24.2923 13.4945H24.2763C24.2137 13.5407 24.1513 13.5793 24.0965 13.6255C23.9791 13.4405 23.893 13.2626 23.7991 13.1315L23.6262 13.0005C23.6029 12.9774 23.5872 12.9468 23.5872 12.9237C23.4463 12.8466 23.2581 12.8699 22.9762 13.0472C22.9058 13.0934 22.843 13.1396 22.7804 13.1858C22.6943 13.2628 22.608 13.34 22.5219 13.3785C22.4908 13.3863 22.4674 13.4017 22.4363 13.4094C22.3032 13.4788 22.1465 13.5331 21.9117 13.5563C21.5436 13.5948 21.1598 13.402 20.7057 13.5947C20.3063 13.7643 20.5256 14.0113 20.3768 14.1963C19.9774 14.6821 18.4581 15.0365 17.1817 15.3681C16.6649 15.5223 16.1791 15.6611 15.8189 15.7845C15.7249 15.8231 15.6309 15.8619 15.5604 15.9005C15.5369 15.9161 15.4897 15.9772 15.474 16.0157L15.6782 16.1008L15.8893 16.1392C15.396 16.2703 14.9963 16.7563 14.4638 16.5481C14.4246 16.4402 14.5111 16.4398 14.5816 16.4321L14.6596 16.3553C14.6517 16.2783 14.5894 16.1857 14.5112 16.0933L14.0883 15.777C14.0257 15.7538 13.9707 15.7538 13.9315 15.777L13.9162 16.1701L13.3832 16.0006C13.391 16.0315 13.3991 16.07 13.4069 16.1008C13.4774 16.2705 13.6259 16.5789 13.3832 16.71C13.2346 16.7866 13.1405 16.4709 12.9526 16.3244C12.8431 16.2936 12.7179 16.2702 12.5848 16.2702C12.2637 16.3088 11.6839 16.4245 11.261 16.5248C11.081 16.5787 10.9165 16.6329 10.7678 16.6791L10.8381 16.9261C10.8616 16.9877 10.8775 17.0495 10.8618 17.088L10.016 16.9412L10.3609 17.4269C10.2043 17.45 10.0396 17.4732 9.88295 17.4886C9.60895 17.5426 9.24889 17.5583 8.88878 17.5737C8.29363 17.62 7.69789 17.6738 7.11839 17.8049C6.81317 17.8974 6.50019 18.0055 6.281 18.0595C6.24184 18.0672 6.21003 18.0824 6.17087 18.0979C6.14749 18.0902 6.13159 18.0903 6.10816 18.0903H6.08522C6.00694 18.0903 5.93619 18.0749 5.86574 18.0595C5.51334 18.0517 5.35632 18.1983 5.06658 18.5068L4.94192 18.2055C4.69916 18.5525 4.76939 18.7845 4.29954 18.8539C4.27608 18.8616 4.26012 18.869 4.24447 18.869C3.97042 18.9229 3.63361 18.8226 3.29695 18.7455C2.88981 18.6684 2.51379 18.6376 2.28672 19C1.99696 18.2676 1.08132 17.9436 0.666222 17.4194C0.470446 17.1649 0.430894 16.7945 0.258611 16.7251L0.101838 16.7868V16.7333C0.0706118 16.7411 0.0391598 16.7561 0.000126857 16.7868C-0.0153669 15.9311 1.39388 16.2703 1.21378 15.399C1.7228 15.5917 2.2245 15.4763 2.72569 15.6768H2.78839C2.74144 15.5535 2.74879 15.3991 2.74098 15.2604C2.70966 15.1756 2.67827 15.0979 2.67827 15.0285C2.647 14.9901 2.60782 14.9593 2.53756 14.9516L2.91305 14.7355L2.88169 14.6821L2.60791 14.4893C3.51631 14.4739 4.24496 14.543 5.1377 14.3733C7.11883 14.0031 8.96722 12.8312 10.8779 12.4071C11.3481 12.2993 12.9365 12.4302 12.5297 11.8521C13.1171 12.068 13.1566 11.5742 13.1018 11.0961C13.1564 11.0884 13.2033 11.0885 13.2501 11.0885C13.2579 11.0962 13.2736 11.0961 13.2815 11.0961C13.7279 11.1655 13.924 11.7134 14.4408 11.7211L14.5265 11.5667C14.503 11.3277 14.2294 11.0576 14.2451 11.0268C14.3704 10.8109 15.0437 10.7031 15.7562 10.6337C16.0694 10.6029 16.3747 10.5798 16.68 10.5644C16.8053 10.5567 16.923 10.5411 17.0326 10.5411C17.2126 10.5257 17.3849 10.5101 17.5648 10.4793C17.9955 10.3791 18.7555 9.97802 18.92 10.0011C19.3819 10.0628 19.0375 10.4252 19.3192 10.5795C19.3192 10.5101 19.327 10.4482 19.3505 10.3942L19.2962 10.3325L19.4522 10.2248C19.5697 10.0937 19.7423 9.99369 19.9302 9.89346L20.6896 9.36859C20.8462 9.87744 21.864 9.51558 22.3262 9.7775C22.3496 9.78519 22.3656 9.80052 22.3812 9.8159C22.4203 9.8313 22.4517 9.85456 22.4829 9.87765C22.4986 9.88536 22.5065 9.93947 22.5143 10.0011C22.6709 10.3559 22.5693 10.8649 23.094 10.3174C23.109 10.2952 23.1383 10.2585 23.1406 10.2557L23.0465 10.0396C22.9213 9.89317 22.7496 9.76229 22.8982 9.66981C23.1252 9.53105 23.728 9.56183 24.0491 9.40775C24.2919 9.2998 24.5116 8.94472 24.7152 8.84448C24.8797 8.75983 25.1457 8.8136 25.3492 8.8136C25.6624 8.69796 25.999 8.613 26.4374 8.5282C26.9151 8.3894 27.4011 8.26632 27.8553 8.25861C28.0354 8.25092 28.2627 8.29687 28.4663 8.33542C28.5522 8.35081 28.6381 8.36672 28.724 8.38211C28.7867 8.38982 28.8499 8.38964 28.8969 8.38964C28.9358 8.3818 28.9438 8.31262 28.9672 8.25108L28.9359 8.18105L29.1553 8.08842C29.2727 8.01911 29.3981 7.95772 29.4842 7.84218L29.0766 7.2405C29.1235 7.19427 30.2184 7.04042 30.3529 7.04019C30.3843 7.04019 30.4004 7.10166 30.4317 7.17875C30.463 7.20187 30.4707 7.2253 30.4707 7.26384C30.549 7.42575 30.7058 7.61031 31.1207 7.51009C31.3634 7.4483 31.5436 7.10939 31.6454 6.88582C31.7941 6.56971 31.4496 6.56163 32.1463 6.41516C32.1776 6.44597 32.1697 6.4923 32.1463 6.54619C32.1698 6.56162 32.17 6.58538 32.17 6.61623C32.1388 6.61625 32.1154 6.63108 32.092 6.63882C31.9667 6.82388 31.7397 7.06338 31.7945 7.29472C31.8026 7.32548 31.8573 7.35599 31.9276 7.37906L32.3191 7.40993C32.3114 7.36362 32.3268 7.27883 32.3581 7.17875C32.3816 7.05539 32.4367 6.90089 32.5776 6.76985C32.6245 6.70835 32.6791 6.6547 32.726 6.65463C32.8434 6.57752 32.9143 6.50764 33.1022 6.54619C33.1726 6.81594 33.0472 6.75451 32.8047 6.76985C32.8204 7.36361 33.1803 7.40243 33.6972 7.2405C33.7278 7.21023 33.7432 7.14301 33.7438 7.14034L33.415 6.43851V6.42345C34.5975 6.24609 35.7882 6.17621 36.9864 6.12223L39.8679 5.87599C40.1498 5.82201 40.4242 5.76737 40.573 5.77508C40.6199 5.78277 40.6668 5.79057 40.7137 5.80595C40.784 5.80597 40.8232 5.82931 40.8544 5.8677C40.9954 5.94481 41.1288 6.03734 41.2697 6.06048C41.6613 6.12217 42.1077 5.92228 42.374 6.09964H42.3816C42.5927 6.21516 42.6166 6.32271 42.5698 6.41516C42.5776 6.45372 42.5935 6.5005 42.5935 6.55448L42.3036 6.67798C42.2961 6.68542 42.2952 6.69304 42.2952 6.69304V6.70057C42.3892 7.10926 42.7656 7.20941 43.1571 7.18628C43.0712 6.82409 43.3525 6.38498 43.2512 6.13051L42.8596 5.92192C42.985 5.68294 43.517 5.52077 43.6267 5.38199C43.8459 5.10437 43.5176 4.42562 44.3555 4.23285C44.8563 4.11735 45.0288 4.23332 45.3106 4.31041C45.4671 4.32583 45.6237 4.35657 45.7802 4.37969C46.25 4.44137 46.8686 4.49515 47.2523 4.4181C47.4872 4.37183 47.6207 4.04814 47.7616 4.31794C47.8399 4.30252 47.9105 4.28742 47.9888 4.27201C48.2784 4.10243 48.5993 4.07103 48.9202 4.10182C49.0769 4.0864 49.2184 4.0864 49.3202 4.10182C49.3514 4.10202 49.3749 4.14092 49.3906 4.17938C49.5236 4.21022 49.6567 4.24117 49.7898 4.27201C49.8837 4.25658 49.978 4.24077 50.0719 4.25619C50.2362 4.27166 50.3614 4.36446 50.5178 4.40304C50.69 4.41075 51.0035 4.24093 51.0585 4.28707C51.082 4.30249 51.0822 4.66473 51.278 4.68016C51.5128 4.48746 51.7398 4.30249 51.9746 4.15604C52.1469 4.025 52.3426 3.90923 52.5383 3.87064C52.5696 3.86293 52.6246 3.85558 52.695 3.85557C52.9143 3.80931 53.1417 3.80931 53.4001 3.85557C53.58 3.85559 53.7207 3.87104 53.7443 3.88645C53.7598 3.90206 53.6427 4.21 53.7443 4.27954C53.7991 4.27954 53.87 4.21031 53.9561 4.1101C54.0736 3.92503 54.2537 3.64707 54.4104 3.54683C54.5281 3.46974 54.974 3.3697 55.107 3.37739H55.1384C55.1776 3.36197 55.2013 3.36158 55.2248 3.36158C55.3186 3.35397 55.3497 3.39292 55.3732 3.43914C55.475 3.48541 55.5616 3.53177 55.6477 3.53177C55.8519 3.53145 56.7909 3.20765 56.83 3.25389C56.8769 3.30054 56.8223 3.84009 57.2996 3.88645C57.6989 3.84018 58.2629 3.40026 58.5996 3.2923C58.6153 3.28459 58.639 3.27724 58.6547 3.27724C59.1089 3.07678 59.5554 3.06127 59.7904 3.76295C60.0718 3.81666 59.9547 3.5856 60.1345 3.43914C60.3773 3.23865 61.1529 2.94578 61.4896 2.8224L61.8728 2.38262C61.9276 2.55995 61.7635 2.65241 61.693 2.80659C61.9201 2.72945 62.1083 2.51326 62.2414 2.49784C62.719 2.44409 63.3609 2.93775 63.8229 2.96096H63.8466C63.9092 2.96096 63.9639 2.96071 64.0186 2.93762C64.5511 2.74484 64.011 2.26663 64.0423 2.23578C64.2772 2.15879 64.5355 2.30511 64.7704 2.23578C65.342 2.07385 66.4154 0.878677 66.8696 1.62657C66.9323 1.73453 66.8853 1.9123 66.8696 2.05882C66.8775 2.12815 66.893 2.19749 66.9086 2.25913C66.9556 2.32073 67.0493 2.34394 67.2214 2.32088C67.2292 2.31317 67.2373 2.29772 67.2451 2.29C67.2522 2.29 67.2527 2.27728 67.2528 2.27494C67.198 2.10535 67.2216 1.78125 67.3155 1.54223C67.3076 1.48833 67.3078 1.43422 67.3078 1.38033H67.4019C67.5037 1.23381 67.6447 1.17981 67.8248 1.34945C68.0357 1.54968 67.5196 1.54212 67.6443 1.71919C68.0437 1.81173 69.0306 3.73174 69.43 3.39245L69.2029 3.09952C69.7979 2.66787 70.5651 3.75452 71.0428 3.5777C71.1603 3.53144 71.2075 3.45411 71.231 3.36158V3.26895C71.2309 3.12253 71.1845 2.9528 71.1767 2.81412C71.161 2.76018 71.1526 2.70615 71.1369 2.65221C71.1526 2.66764 71.1687 2.67538 71.1843 2.68309C71.192 2.67532 71.192 2.65987 71.192 2.65221C71.7557 3.06085 71.9828 2.7989 72.5387 2.77571C72.8598 2.768 73.1106 2.93039 73.3768 3.04605C73.4786 3.08459 73.5885 3.12309 73.698 3.14621C73.7998 3.16161 73.9095 3.16933 74.0269 3.14621C74.1208 3.13079 74.191 3.10701 74.238 3.07618L74.3557 2.93762C74.4026 2.7757 74.246 2.56748 74.2617 2.55206C74.3559 2.45957 76.0161 2.57503 76.4703 2.39769C76.5796 2.35126 76.5487 2.17427 76.6974 2.09722C77.2142 1.83517 77.8409 2.05119 78.389 1.95866C78.2481 2.33642 78.2086 2.42892 78.4984 2.76818C78.7332 2.4213 78.9132 2.30538 79.1637 2.32841C79.2342 2.32841 79.2974 2.33597 79.3679 2.36681C79.4618 2.39763 79.5633 2.43657 79.6807 2.48278V2.02794C79.6807 1.47285 79.6808 1.10272 80.2756 0.701835C80.2991 0.678702 80.315 0.670569 80.3307 0.655146C80.4325 0.570323 80.5031 0.431343 80.6832 0.469898L80.4171 0.778645L80.4951 1.0023C80.5578 1.02543 80.6519 0.902313 80.918 0.863739L80.8477 1.28017C81.0668 1.19539 81.3876 1.01754 81.6147 1.01736C81.7868 1.01736 81.889 1.09442 82.0063 1.14839C82.1237 1.1638 82.2414 1.17925 82.3588 1.17926C82.5389 1.14071 82.7274 1.07146 82.9232 1.14086C82.8997 1.24881 82.8834 1.3418 82.8834 1.4112L82.9538 1.70413C83.0399 1.69642 83.1892 1.54223 83.291 1.54223C83.4242 1.5424 83.776 1.77365 83.9327 1.85851C83.964 1.86622 83.9879 1.87357 84.0114 1.87357C84.0349 1.75793 84.0505 1.48048 84.1521 1.45714C84.2539 1.42629 85.4212 1.71922 85.7344 1.75007C85.7813 1.75775 85.8205 1.7576 85.8675 1.7576C86.3138 1.77301 86.7993 1.7657 87.2769 1.77341C87.7311 1.7657 88.1463 1.76579 88.6083 1.86604C88.9137 1.9123 89.1955 1.97423 89.4304 2.08216C89.5243 2.12842 89.5949 2.19012 89.6576 2.24406H89.6652C90.2838 2.55247 90.5191 1.93532 90.6288 1.93532C90.6678 1.93547 90.6994 1.97407 90.7228 2.02794H90.7932L90.7695 2.13563C90.785 2.18157 90.8006 2.22762 90.8085 2.22825C90.9259 2.29764 91.1218 2.02776 91.2314 1.97372C91.6151 1.78094 92.0302 1.61883 92.4061 1.40292C92.3356 1.64961 92.3278 1.83499 92.3747 2.0046C92.3747 2.02002 92.3829 2.03586 92.3908 2.05129C92.3978 2.05855 92.3984 2.07204 92.3984 2.07388C92.4532 2.19726 92.5314 2.30572 92.6332 2.40597C92.6644 2.4444 92.7035 2.47522 92.7425 2.51365L93.5027 1.54223C93.667 1.7427 93.6514 2.01263 93.6044 2.2516C93.9098 1.95086 94.4348 2.23608 94.6697 2.15897C94.7949 2.12004 94.9669 1.82733 95.1546 1.71166C95.2485 1.64998 96.0323 1.26409 96.2359 1.17926C96.2514 1.16407 96.267 1.15617 96.2826 1.14086C96.2904 1.14857 96.2979 1.15649 96.2979 1.1642C96.3605 1.17962 96.5018 1.3491 96.6428 1.39539C96.7446 1.42623 96.8231 1.44171 96.8936 1.45714C97.0971 1.44942 97.3005 1.42669 97.4649 1.60398C97.4805 1.61169 97.4966 1.62657 97.5123 1.62657C97.6062 1.65716 97.7316 1.48035 97.8725 1.51889L97.9115 1.48801C97.841 1.21041 97.7785 1.02516 97.8725 0.724426V0.624272C97.9036 0.631966 97.9347 0.647352 97.9581 0.662677C98.0129 0.631873 98.0757 0.593648 98.0759 0.547461C98.0681 0.377879 97.8098 0.192702 98.0912 0Z" fill="#6CB52D"/>
<path d="M55.9842 9.95521L55.4833 10.1939L55.4435 9.68487L55.9842 9.95521Z" fill="#6CB52D"/>
<path d="M67.3155 8.25108C67.4173 8.23566 67.7856 8.28145 67.8248 8.33542C67.8717 8.38935 67.9184 8.68186 67.8248 8.72851L67.3231 8.25108H67.3155Z" fill="#6CB52D"/>
<path d="M98.0759 6.89335C97.8098 6.20716 98.6166 5.85262 98.9768 6.36923C99.0158 6.40004 99.0472 6.43844 99.0785 6.47691H99.0311C99.0467 6.51547 99.0628 6.5468 99.0785 6.58535C98.914 6.40799 98.7181 6.67008 98.5302 6.87828C98.5301 6.89165 98.5225 6.89335 98.5225 6.89335C98.358 7.0707 98.1934 7.20179 98.0759 6.89335Z" fill="#6CB52D"/>
<path d="M116.346 6.05295C116.322 6.0143 117.066 5.38248 117.16 5.84511C116.8 5.91451 116.62 6.57731 116.346 6.05295Z" fill="#6CB52D"/>
<path d="M143.315 5.89105C143.088 6.33821 142.807 6.19923 142.58 5.83683L143.315 5.89105Z" fill="#6CB52D"/>
<path d="M115.132 5.06571C115.469 4.94232 115.876 4.73452 116.22 4.9889L116.228 4.98137C116.298 5.03534 116.447 5.24348 116.307 5.33605C116.111 5.45172 115.719 5.49751 115.413 5.61317C115.406 5.6286 115.382 5.65233 115.382 5.65233V5.62899C115.171 5.72148 115.007 5.85256 114.999 6.09136C114.466 5.79833 114.921 5.50591 115.359 5.55218L115.304 5.32852C115.234 5.25912 115.132 5.22765 115.132 5.06571Z" fill="#6CB52D"/>
<path d="M118.476 5.24343C118.523 5.12005 118.89 5.65995 118.515 5.75249L118.476 5.24343Z" fill="#6CB52D"/>
<path d="M135.931 4.65756C136.142 4.60362 136.228 4.75737 136.291 4.90381C136.369 4.99633 136.424 5.08894 136.511 5.15834H136.503C136.66 5.20454 136.894 5.20516 136.972 5.29765C137.09 5.43639 137.043 5.57508 136.941 5.65986V5.71408C136.91 5.72933 136.886 5.72175 136.871 5.71408C136.8 5.74489 136.714 5.75973 136.636 5.73667L136.808 5.44374C136.8 5.43604 136.792 5.42868 136.792 5.42868C136.612 5.49026 136.487 5.51337 136.393 5.49796C136.354 5.53642 136.315 5.55971 136.315 5.55971L136.283 5.45955C136.096 5.33619 136.134 4.9891 135.931 4.65756Z" fill="#6CB52D"/>
<path d="M129.353 2.73731C129.509 3.33105 129.83 4.68028 129.541 5.22009C129.47 5.35097 129.4 5.38204 129.322 5.37446C129.283 5.39759 129.251 5.40549 129.219 5.36693C129.219 5.35162 129.204 5.34372 129.204 5.32852C129.103 5.26693 129.009 5.16646 128.93 5.15081C128.484 5.05059 128.335 5.336 128.085 5.3978C128.077 5.52884 128.045 5.69074 127.896 5.72161L127.873 5.41287C127.7 5.43599 127.528 5.43585 127.356 5.45127C127.317 4.71127 128.21 4.60298 128.445 3.93992C128.687 4.47187 128.781 4.33336 129.353 4.28707C129.439 3.72435 128.75 3.66259 128.648 3.20796C128.734 3.20024 128.813 3.17647 128.875 3.13793C128.914 3.09945 128.969 3.06134 129.04 3.01518L129.055 2.99937C129.149 2.91461 129.243 2.81439 129.353 2.73731Z" fill="#6CB52D"/>
<path d="M146.401 5.27431C146.511 5.39001 146.221 5.69063 146.111 5.59811C145.939 5.45931 146.385 5.25117 146.401 5.27431Z" fill="#6CB52D"/>
<path d="M145.242 4.94297C145.257 5.05842 145.077 5.10441 145.046 5.15834C145.015 5.20455 145.007 5.27413 144.984 5.35112L144.96 5.47461C144.945 5.48223 144.929 5.48214 144.921 5.48214C144.898 5.52069 144.858 5.55146 144.811 5.5823C144.545 5.0973 143.614 5.64397 143.222 5.3594C143.167 5.32858 143.12 5.2898 143.073 5.2359H143.112C143.088 5.19734 143.072 5.15075 143.057 5.08906L143.065 5.09659C143.645 5.28929 144.248 4.94291 144.835 5.074L145.242 4.94297Z" fill="#6CB52D"/>
<path d="M130.05 5.4204C129.988 5.20465 130.371 5.06638 130.449 5.13575C130.66 5.32089 130.16 5.79046 130.05 5.4204Z" fill="#6CB52D"/>
<path d="M126.134 4.51072C126.408 4.53394 126.267 4.94278 126.283 5.1124C125.946 5.0275 126.087 4.7497 126.134 4.51072Z" fill="#6CB52D"/>
<path d="M137.473 4.95803C137.059 4.67278 137.027 4.27924 137.575 4.23285L137.473 4.95803Z" fill="#6CB52D"/>
<path d="M133.825 4.28707C133.919 4.8654 133.817 4.61907 133.511 4.71931C133.409 4.75808 133.37 5.32786 133.002 4.44897L133.825 4.28707Z" fill="#6CB52D"/>
<path d="M150.395 4.27201C150.481 4.40317 150.363 4.99651 150.23 4.89628C150.105 4.79573 150.152 4.31861 150.395 4.27201Z" fill="#6CB52D"/>
<path d="M123.307 4.2946C123.503 4.31002 123.879 4.31068 124.044 4.39551H124.051C124.27 4.50347 124.005 4.74947 123.778 4.64175C123.754 4.63405 123.754 4.52659 123.715 4.50319C123.527 4.41066 123.26 4.6416 123.307 4.2946Z" fill="#6CB52D"/>
<path d="M139.76 4.18691C139.666 4.46441 139.322 4.54157 139.056 4.5416C139.15 4.32586 139.564 4.27935 139.76 4.18691Z" fill="#6CB52D"/>
<path d="M116.111 4.12516C115.986 3.8707 116.816 3.85563 116.925 3.91732C117.042 4.09466 116.463 4.34129 116.463 4.34129H116.471C116.354 4.36442 116.15 4.20228 116.111 4.12516Z" fill="#6CB52D"/>
<path d="M107.011 3.67033C107.34 3.74749 107.16 4.02511 107.16 4.27954H107.058L107.011 3.67033Z" fill="#6CB52D"/>
<path d="M140.535 3.4158C140.559 3.39271 141.144 3.49222 141.146 3.49261C141.46 3.66996 141.076 4.22557 140.692 4.11763C140.731 3.97116 140.809 3.82468 140.77 3.6628C140.755 3.62424 140.348 3.5931 140.535 3.4158Z" fill="#6CB52D"/>
<path d="M131.624 2.59046C131.773 2.60589 131.906 2.66031 132.047 2.66803C132.133 2.94542 131.929 2.85259 131.82 2.8834V2.90674L131.64 3.22302C131.609 3.33098 131.601 3.43902 131.64 3.50842L131.796 3.52348C131.788 3.53889 131.773 3.55461 131.773 3.5777C131.804 3.5777 131.851 3.57788 131.898 3.56264C131.788 3.90941 131.404 4.11006 131.146 4.07923H130.997C130.99 4.04073 130.974 4.01738 130.966 3.9866C130.911 3.92492 130.88 3.81681 130.911 3.67033C130.974 3.36188 131.514 3.19214 131.537 2.80659H130.809C130.903 2.62933 131.044 2.64442 131.209 2.62134L131.444 2.29753L131.624 2.59046Z" fill="#6CB52D"/>
<path d="M135.766 3.74714C136.142 3.61604 136.479 3.26166 136.503 3.90151L135.766 3.74714Z" fill="#6CB52D"/>
<path d="M126.886 3.53177C126.894 3.56256 126.886 3.60101 126.87 3.63945C126.792 3.91694 126.526 3.97073 126.291 3.80889C126.252 3.80118 126.22 3.794 126.173 3.78629V3.7012C126.134 3.65498 126.095 3.60091 126.064 3.5393L126.072 3.54683C126.064 3.37725 126.761 3.36212 126.886 3.33899V3.53177Z" fill="#6CB52D"/>
<path d="M126.918 3.83976C126.988 3.55471 127.098 3.67789 127.333 3.70873V3.80889L126.918 3.83976Z" fill="#6CB52D"/>
<path d="M139.917 3.4542C139.862 3.74711 139.627 3.58594 139.408 3.59352H139.4V3.49261L139.917 3.4542Z" fill="#6CB52D"/>
<path d="M137.074 3.03777C136.972 3.15342 137.192 3.43134 136.573 3.27724L137.074 3.03777Z" fill="#6CB52D"/>
<path d="M141.765 3.12286L141.256 3.26142L141.233 2.96096L141.749 2.92256L141.765 3.12286Z" fill="#6CB52D"/>
<path d="M133.112 2.99937C133.289 2.99937 133.639 3.007 133.643 3.16127C133.291 3.29135 133.127 3.08391 132.908 3.0069C132.806 2.96874 132.594 3.06823 132.485 2.8834L133.135 2.58293L133.112 2.99937Z" fill="#6CB52D"/>
<path d="M133.644 3.1688C133.644 3.16624 133.643 3.16376 133.643 3.16127H133.644V3.1688Z" fill="#6CB52D"/>
<path d="M135.312 2.537C135.469 2.64496 135.664 2.82977 135.61 3.03024C135.547 3.28466 134.976 3.03793 135.085 2.96849C135.187 2.96849 135.297 2.94515 135.399 2.94515C135.383 2.82182 135.179 2.62936 135.32 2.54453L135.312 2.537Z" fill="#6CB52D"/>
<path d="M139.948 3.04605C139.619 2.97655 139.706 2.27474 140.136 2.44437V2.4519C140.16 2.45969 140.332 2.74523 140.489 2.76065L139.948 3.04605Z" fill="#6CB52D"/>
<path d="M137.074 3.03777C137.176 2.86802 136.699 2.3747 137.192 2.52118C137.787 2.69078 137.129 2.98366 137.074 3.03777Z" fill="#6CB52D"/>
<path d="M134.138 2.72978L134.154 2.93009L133.84 2.95343C133.864 2.80694 133.989 2.70668 134.138 2.72978Z" fill="#6CB52D"/>
<path d="M129.76 2.03547C129.94 2.04321 130.003 2.33597 130.089 2.45943C130.128 2.5134 130.347 2.42117 130.277 2.68309H130.269C130.113 2.77562 130.011 2.73707 129.932 2.68309C129.603 2.66766 129.181 2.62158 129.212 2.40597C129.227 2.28259 129.635 2.03547 129.76 2.03547Z" fill="#6CB52D"/>
<path d="M129.18 1.94285C129.251 2.25129 129.125 2.40576 128.797 2.38262L129.18 1.94285Z" fill="#6CB52D"/>
<path d="M135.21 1.73501C135.367 1.85851 134.694 2.34397 134.623 2.29C134.67 2.1589 135.077 1.64248 135.21 1.73501Z" fill="#6CB52D"/>
<path d="M128.045 2.12057C127.981 2.18952 127.63 2.11998 127.614 1.94285L128.022 1.81182C128.022 1.89664 128.045 2.12057 128.045 2.12057Z" fill="#6CB52D"/>
<path d="M122.422 1.38786C122.656 1.44163 122.409 1.99281 122.407 1.99707L122.415 2.0046C122.313 2.074 121.992 1.97363 121.992 1.8811C121.993 1.8265 122.36 1.48808 122.422 1.38786Z" fill="#6CB52D"/>
<path d="M133.488 1.23348H133.504L133.519 1.2877C133.628 1.50358 133.754 1.68841 133.66 1.94285H133.652C133.307 1.70392 133.018 1.61935 132.595 1.70413C132.658 1.56533 133.057 1.35674 133.19 1.30276C133.276 1.27194 133.409 1.20281 133.488 1.23348Z" fill="#6CB52D"/>
<path d="M125.735 1.87357H125.727C125.523 1.7812 125.351 1.84253 125.398 1.58817L125.712 1.56482L125.735 1.87357Z" fill="#6CB52D"/>
<path d="M123.331 1.72672C123.182 1.77299 123.112 1.69594 123.01 1.5957L123.315 1.52642L123.331 1.72672Z" fill="#6CB52D"/>
</svg>
